<?xml version="1.0" encoding="UTF-8"?>
<!DOCTYPE svg PUBLIC "-//W3C//DTD SVG 1.1//EN" "http://www.w3.org/Graphics/SVG/1.1/DTD/svg11.dtd">
<!-- Creator: CorelDRAW X8 -->
<svg xmlns="http://www.w3.org/2000/svg" xml:space="preserve" width="14.8166mm" height="14.8166mm" version="1.1" style="shape-rendering:geometricPrecision; text-rendering:geometricPrecision; image-rendering:optimizeQuality; fill-rule:evenodd; clip-rule:evenodd"
viewBox="0 0 1482 1482"
 xmlns:xlink="http://www.w3.org/1999/xlink">
 <defs>
  <style type="text/css">
   <![CDATA[
    .str0 {stroke:#2B2A29;stroke-width:20}
    .fil2 {fill:#FEFEFE}
    .fil0 {fill:#2B2A29}
    .fil4 {fill:#010101}
    .fil1 {fill:#FEFEFE;fill-rule:nonzero}
    .fil3 {fill:#010101;fill-rule:nonzero}
   ]]>
  </style>
 </defs>
 <g id="Слой_x0020_1">
  <metadata id="CorelCorpID_0Corel-Layer"/>
  <polygon class="fil0 str0" points="-9,-10 1472,-10 1472,1471 -9,1471 "/>
  <path class="fil1" d="M636 670l0 2c7,3 11,10 11,27l0 161c0,17 -4,23 -11,27l0 2 128 0 3 -50 -7 0c-9,23 -28,33 -47,33l-14 0c-12,0 -13,-9 -13,-16l0 -157c0,-17 4,-24 11,-27l0 -2 -61 0z"/>
  <path class="fil1" d="M1004 791l-15 -27c-1,-1 -3,-6 -3,-10 0,-3 1,-7 5,-10l0 -1 -60 0 0 1c8,4 17,10 26,27l26 47 -33 50c-8,12 -14,17 -19,19l0 2 29 0 30 -57 20 35c4,8 3,18 -6,20l0 2 61 0 0 -2c-5,-2 -12,-7 -20,-22l-34 -62 22 -35c11,-16 22,-22 25,-24l0 -1 -26 0 -28 48z"/>
  <path class="fil1" d="M589 803c-1,-64 -72,-85 -102,-38 -7,11 -13,27 -13,48 0,28 9,45 15,53 9,14 25,26 46,26 26,0 41,-16 53,-38l-5 -5c-11,16 -24,24 -36,23 -28,0 -37,-24 -38,-46l80 -23zm-76 9c-4,1 -4,-1 -4,-5 0,-6 1,-30 5,-40 4,-10 11,-15 17,-16 20,-2 27,27 27,44 0,4 -1,4 -5,5l-40 12z"/>
  <path class="fil1" d="M870 858c-4,3 -8,5 -12,7 -7,4 -13,6 -20,6 -4,0 -9,-1 -12,-5 -4,-5 -4,-11 -4,-17l0 -31 0 0 0 -74 -42 18 0 4c6,1 12,2 12,15l0 54 0 0 0 26c0,8 -1,17 7,25 4,4 10,6 17,6 11,0 22,-5 32,-10 8,-5 16,-9 22,-13l0 -11z"/>
  <path class="fil1" d="M1176 803c-1,-64 -72,-85 -102,-38 -7,11 -12,27 -12,48 0,28 9,45 14,53 10,14 26,26 47,26 25,0 40,-16 52,-38l-5 -5c-10,16 -24,24 -35,23 -28,0 -38,-24 -39,-46l80 -23zm-75 9c-4,1 -4,-1 -4,-5 0,-6 0,-30 4,-40 4,-10 11,-15 18,-16 20,-2 26,27 26,44 0,4 -1,4 -4,5l-40 12z"/>
  <path class="fil2" d="M905 744l-37 16c-2,-1 -4,-1 -5,-1l0 -4 42 -18 0 7zm0 10l-31 14c-1,-3 -2,-4 -3,-6l34 -14 0 6zm0 11l-31 13 0 -4c0,-1 0,-2 0,-2l31 -14 0 7zm0 11l-31 13 0 -7 31 -13 0 7zm0 10l-31 14 0 -7 31 -13 0 6zm0 11l-31 13 0 -6 31 -14 0 7zm0 11l-31 13 0 -7 31 -13 0 7zm0 10l-31 14 0 -7 31 -13 0 6zm0 11l-31 13 0 -6 31 -14 0 7zm0 11l-31 13 0 -7 31 -13 0 7zm0 10c-14,6 -24,11 -31,13l0 -5c7,-3 17,-8 31,-14l0 6zm-35 15c-10,3 -9,1 0,-4l0 4zm35 -4l-31 13 0 -6 31 -14 0 7zm-43 12l0 0 1 0 -1 0zm43 -1l-31 13 0 -7 31 -13 0 6 0 1zm2 9l-16 7 -15 0 29 -13c0,2 1,4 2,6zm1 4l0 3 -8 0 8 -3z"/>
  <path class="fil2" d="M337 889l19 0c50,0 76,-28 88,-47 12,-18 18,-46 18,-70 0,-39 -17,-62 -28,-73 -26,-27 -59,-29 -84,-29l-13 0 0 19c2,-2 6,-2 12,-2 35,0 52,22 61,42 7,16 8,33 8,50 0,20 -2,46 -15,67 -13,20 -31,26 -52,26 -7,0 -12,-2 -14,-4l0 21z"/>
  <path class="fil2" d="M332 671c-10,4 -27,12 -40,17 0,-2 -1,-4 -1,-6l27 -12 14 0 0 1zm-22 -1l-21 9c-1,-2 -2,-3 -4,-5l10 -4 15 0zm22 218l-1 1 -15 0 16 -8 0 7zm0 -10c-6,3 -15,7 -24,11l-16 0c14,-6 30,-14 40,-18 0,2 0,5 0,7zm0 -11c-12,6 -34,16 -48,22l-2 0 0 -2c3,-2 5,-4 7,-7 14,-6 33,-15 43,-19 0,2 0,4 0,6zm0 -10c-10,5 -28,12 -41,18 1,-2 1,-4 1,-7 14,-6 30,-13 40,-18l0 6 0 1zm0 -10c-10,4 -26,12 -39,17 0,-1 0,-3 0,-4l0 -2c13,-6 29,-14 39,-18l0 7zm0 -11c-10,5 -26,12 -39,18l0 -7c13,-6 29,-13 39,-17l0 6zm0 -10c-10,4 -26,12 -39,18l0 -7c13,-6 29,-13 39,-18l0 7zm0 -10c-10,4 -26,11 -39,17l0 -7c13,-5 29,-13 39,-17l0 7zm0 -11c-10,5 -26,12 -39,18l0 -7c13,-6 29,-13 39,-17l0 6zm0 -10c-10,4 -26,12 -39,18l0 -7c13,-6 29,-13 39,-18l0 7zm0 -10c-10,4 -26,11 -39,17l0 -7c13,-5 29,-13 39,-17l0 7zm0 -11c-10,5 -26,12 -39,18l0 -7c13,-6 29,-13 39,-17l0 6zm0 -10c-10,4 -26,12 -39,17l0 -6c13,-6 29,-13 39,-18l0 7zm0 -10c-10,4 -26,11 -39,17l0 -7c13,-6 29,-13 39,-17l0 7zm0 -11c-10,5 -26,12 -39,18l0 -7c13,-6 29,-13 39,-18l0 7zm0 -10c-10,4 -26,12 -39,17l0 -6c13,-6 29,-14 39,-18l0 7zm0 -10c-10,4 -26,11 -39,17l0 -7c13,-6 29,-13 39,-17l0 7zm0 -11c-10,5 -26,12 -39,18l0 -7c13,-6 29,-13 39,-18l0 7zm0 -10c-10,4 -26,11 -39,17l0 -7c13,-5 30,-13 39,-17l0 3c0,1 0,2 0,4l0 0zm0 -11c-9,5 -26,12 -39,18l0 -7c13,-6 30,-13 39,-17 0,2 0,4 0,6zm0 -10c-9,4 -26,12 -39,18 0,-3 0,-5 -1,-7 14,-6 31,-13 40,-18 0,2 0,5 0,7z"/>
  <polygon class="fil2" points="293,516 606,516 606,519 293,519 "/>
  <polygon class="fil2" points="899,516 1180,516 1180,519 899,519 "/>
  <g id="_2072406202624">
   <path class="fil2" d="M780 513c22,-8 35,-23 42,-34 10,-16 16,-40 16,-60 0,-33 -15,-53 -24,-63 -23,-23 -51,-25 -72,-25l-12 0 0 16c2,-1 6,-1 11,-1 30,0 45,18 52,36 6,14 7,28 7,43 0,17 -2,39 -13,57 -2,3 -5,6 -7,9l0 22z"/>
   <path class="fil2" d="M727 332c-9,4 -24,10 -35,15 0,-2 -1,-4 -1,-5l23 -11 13 0 0 1zm-19 -1l-18 8c-1,-2 -2,-3 -4,-4l8 -4 14 0zm19 187l-2 1 -13 0 15 -7 0 6zm0 -9c-6,3 -14,6 -22,10l-13 0c12,-6 26,-12 35,-16 0,2 0,4 0,6zm0 -9c-11,5 -30,13 -42,19l-2 0 0 -2c3,-1 5,-3 7,-6 11,-5 27,-12 37,-17 0,2 0,4 0,6zm-1 -9c-8,4 -23,11 -35,16 0,-2 1,-4 1,-6 11,-5 26,-12 34,-15l0 5 0 0zm0 -8c-8,3 -22,10 -34,15 0,-2 0,-3 0,-4l0 -2c12,-5 26,-11 34,-15l0 6zm0 -9c-8,3 -22,10 -34,15l0 -6c12,-5 26,-11 34,-15l0 6zm0 -9c-8,4 -22,10 -34,15l0 -6c12,-5 26,-11 34,-15l0 6zm0 -9c-8,4 -22,10 -34,15l0 -6c12,-5 26,-11 34,-15l0 6zm0 -9c-8,4 -22,10 -34,15l0 -6c12,-5 26,-11 34,-15l0 6zm0 -9c-8,4 -22,10 -34,15l0 -6c12,-5 26,-11 34,-15l0 6zm0 -9c-8,4 -22,10 -34,15l0 -5c12,-5 26,-12 34,-15l0 5zm0 -8c-8,3 -22,10 -34,15l0 -6c12,-5 26,-12 34,-15l0 6zm0 -9c-8,3 -22,10 -34,15l0 -6c12,-5 26,-11 34,-15l0 6zm0 -9c-8,4 -22,10 -34,15l0 -6c12,-5 26,-11 34,-15l0 6zm0 -9c-8,4 -22,10 -34,15l0 -6c12,-5 26,-11 34,-15l0 6zm0 -9c-8,4 -22,10 -34,15l0 -6c12,-5 26,-11 34,-15l0 6zm0 -9c-8,4 -22,10 -34,15l0 -6c12,-5 26,-11 34,-15l0 6zm0 -9c-8,4 -22,10 -34,15l0 -6c12,-5 26,-11 34,-15l0 6zm0 -9c-8,4 -22,10 -34,15l0 -5c12,-5 26,-12 35,-15l0 2c-1,1 -1,2 -1,3l0 0zm1 -9c-9,4 -23,11 -35,16l0 -6c12,-5 26,-12 35,-15 0,2 0,4 0,5zm0 -8c-9,3 -23,10 -35,15 0,-2 0,-4 0,-6 12,-5 26,-11 35,-15 0,2 0,4 0,6z"/>
   <path class="fil1" d="M728 377l0 2c6,3 9,8 9,23l0 138c0,14 -3,20 -9,23l0 2 110 0 2 -43 -6 0c-7,20 -26,28 -43,28l-12 0c-10,0 -11,-7 -11,-14l0 -134c0,-15 3,-20 9,-23l0 -2 -49 0z"/>
  </g>
  <g id="_2072406200416">
   <path class="fil1" d="M317 954l0 14c0,9 5,13 11,13 4,0 8,-2 10,-3l0 0 0 15 6 0 0 -39 -6 0 0 19c-2,1 -5,2 -7,2 -6,0 -8,-3 -8,-8l0 -13 -6 0zm55 -1c-9,0 -17,8 -17,21 0,12 7,20 17,20 8,0 17,-6 17,-21 0,-12 -7,-20 -17,-20zm0 5c8,0 11,9 11,16 0,8 -5,15 -11,15 -6,0 -10,-7 -10,-15 0,-8 3,-16 10,-16zm31 -4l0 16c0,9 -1,14 -4,17 -1,1 -2,1 -4,2l1 5c3,0 5,-1 7,-2 5,-4 6,-11 6,-22l0 -10 11 0 0 33 7 0 0 -39 -24 0zm52 -1c-10,0 -17,8 -17,21 0,12 7,20 16,20 9,0 18,-6 18,-21 0,-12 -7,-20 -17,-20zm0 5c7,0 10,9 10,16 0,8 -4,15 -10,15 -7,0 -11,-7 -11,-15 0,-8 3,-16 11,-16zm28 35c1,1 5,1 9,1 7,0 19,-1 19,-12 0,-5 -4,-9 -9,-10l0 0c4,-1 7,-4 7,-9 0,-8 -9,-9 -15,-9 -4,0 -9,0 -11,0l0 39zm6 -34c1,0 2,-1 5,-1 6,0 9,2 9,6 0,5 -5,6 -10,6l-4 0 0 -11zm0 16l4 0c6,0 11,1 11,7 0,6 -6,7 -10,7 -2,0 -4,0 -5,0l0 -14zm39 18l0 -39 -6 0 0 39 6 0zm-3 -55c-2,0 -4,2 -4,5 0,2 2,4 4,4 2,0 4,-2 4,-4 0,-3 -2,-5 -4,-5zm15 16l0 14c0,9 5,13 12,13 3,0 7,-2 9,-3l0 0 0 15 7 0 0 -39 -7 0 0 19c-1,1 -4,2 -7,2 -6,0 -7,-3 -7,-8l0 -13 -7 0zm41 0l0 39 7 0c4,-7 8,-14 11,-20 2,-4 4,-7 6,-12l0 0c0,6 0,9 0,16l0 16 6 0 0 -39 -8 0 -11 20c-2,5 -3,8 -5,12l0 0c0,-5 0,-9 0,-15l0 -17 -6 0zm43 0l0 39 7 0c4,-7 8,-14 11,-20 2,-4 4,-7 6,-12l0 0c0,6 0,9 0,16l0 16 6 0 0 -39 -8 0 -11 20c-2,5 -3,8 -5,12l0 0c0,-5 0,-9 0,-15l0 -17 -6 0zm5 -16c1,5 3,10 10,10 5,0 9,-3 9,-10l-4 0c-1,3 -2,6 -5,6 -3,0 -5,-3 -5,-6l-5 0z"/>
   <path class="fil1" d="M709 953c-9,0 -17,8 -17,21 0,12 7,20 17,20 8,0 17,-6 17,-21 0,-12 -7,-20 -17,-20zm0 5c8,0 11,9 11,16 0,8 -5,15 -11,15 -6,0 -11,-7 -11,-15 0,-8 4,-16 11,-16zm31 -4l0 10c0,6 0,11 -2,16 0,3 -2,6 -3,8l-3 0 0 18 5 0 0 -13 25 0 0 13 5 0 0 -18 -3 0 0 -34 -24 0zm6 5l11 0 0 29 -16 0c1,-2 2,-5 3,-7 1,-5 2,-10 2,-15l0 -7zm58 -5c-3,0 -7,-1 -11,-1 -5,0 -9,1 -12,3 -3,2 -5,5 -5,9 0,6 5,9 10,9l0 1c-2,0 -3,1 -4,2 -3,3 -4,8 -6,12 0,2 -1,3 -2,4l7 0c0,-1 1,-2 1,-3 2,-4 3,-9 5,-11 2,-1 3,-2 6,-2l5 0 0 16 6 0 0 -39zm-6 18c-2,0 -3,0 -6,0 -3,0 -9,-2 -9,-7 0,-5 5,-7 9,-7 3,0 4,0 6,1l0 13zm19 -18l0 39 6 0 0 -33 16 0 0 -6 -22 0z"/>
   <path class="fil1" d="M918 989c0,1 -1,1 -2,1 0,0 0,1 -1,1 0,0 -1,0 -1,0 -1,0 -1,1 -3,1 -1,0 -2,0 -4,0 -1,2 -2,3 -3,4 -1,2 -2,3 -3,5 1,2 2,3 4,5 1,1 2,2 3,3 1,0 2,1 3,2l-2 1c-1,0 -1,0 -2,-1 0,0 -1,0 -2,-1 -1,-1 -3,-2 -4,-3 -1,-1 -2,-2 -3,-3 -5,3 -9,6 -12,7 -3,2 -6,2 -11,2 -4,0 -8,-1 -11,-3 -3,-3 -4,-6 -4,-9 0,-4 1,-8 4,-11 3,-3 8,-7 15,-12 0,-2 -1,-3 -1,-5 0,-2 0,-4 0,-6 0,-4 2,-9 8,-15 5,-5 10,-8 14,-8 2,0 3,1 5,2 1,2 2,3 2,5 0,4 -4,9 -10,15 -2,2 -4,4 -7,5 -2,2 -4,4 -7,6 2,6 7,14 16,23 1,-1 2,-2 3,-3 1,-2 2,-3 3,-5 -2,0 -3,0 -3,-1 0,-1 1,-2 2,-2 1,-1 2,-1 4,-1 6,0 10,1 10,1zm-15 -37c0,-3 -2,-5 -6,-5 -2,0 -4,1 -6,2 -2,1 -4,2 -5,4 -4,4 -6,9 -6,13 0,2 0,4 1,6 0,1 0,1 1,2 0,0 0,1 0,2 2,-2 4,-3 6,-5 2,-1 4,-3 6,-4 6,-5 9,-10 9,-15zm-7 50c-1,-1 -2,-2 -3,-3 -1,-1 -2,-2 -3,-3 -5,-6 -8,-11 -10,-17 -6,5 -10,8 -13,11 -2,3 -3,6 -3,10 0,3 1,6 3,9 2,2 5,3 8,3 5,0 8,-1 11,-2 1,-1 3,-2 4,-3 2,-1 4,-3 6,-5z"/>
   <path class="fil1" d="M943 993c2,1 6,1 10,1 7,0 19,-1 19,-12 0,-5 -4,-9 -9,-10l0 0c4,-1 7,-4 7,-9 0,-8 -10,-9 -16,-9 -4,0 -8,0 -11,0l0 39zm6 -34c2,0 3,-1 5,-1 7,0 10,2 10,6 0,5 -5,6 -10,6l-5 0 0 -11zm0 16l5 0c6,0 11,1 11,7 0,6 -6,7 -11,7 -2,0 -3,0 -5,0l0 -14zm36 0l4 0c5,0 10,2 10,7 0,4 -4,7 -9,7 -3,0 -7,-1 -9,-3l-2 5c3,2 8,3 12,3 7,0 15,-3 15,-12 0,-5 -5,-9 -10,-9l0 -1c4,0 8,-4 8,-9 0,-7 -6,-10 -12,-10 -4,0 -8,1 -11,4l1 4c3,-2 6,-3 9,-3 4,0 6,3 6,6 0,4 -3,6 -9,6l-3 0 0 5zm26 -21l13 36c0,1 1,2 1,2 0,1 -1,1 -1,2 -1,4 -4,6 -5,8 -2,2 -4,3 -6,3l2 6c1,0 4,-1 8,-4 4,-4 7,-11 12,-25l9 -28 -7 0 -7 23c0,3 -1,6 -2,8l0 0c-1,-2 -1,-5 -2,-8l-8 -23 -7 0zm39 0l0 6 11 0 0 33 6 0 0 -33 11 0 0 -6 -28 0zm34 0l0 6 11 0 0 33 6 0 0 -33 11 0 0 -6 -28 0zm62 0c-3,0 -7,-1 -11,-1 -5,0 -9,1 -12,3 -2,2 -4,5 -4,9 0,6 4,9 9,9l0 1c-2,0 -3,1 -4,2 -3,3 -4,8 -6,12 0,2 -1,3 -2,4l7 0c1,-1 1,-2 1,-3 2,-4 3,-9 5,-11 2,-1 4,-2 6,-2l5 0 0 16 6 0 0 -39zm-6 18c-2,0 -3,0 -6,0 -3,0 -9,-2 -9,-7 0,-5 5,-7 10,-7 2,0 3,0 5,1l0 13z"/>
  </g>
  <polygon class="fil2 str0" points="4658,-240 6140,-240 6140,1242 4658,1242 "/>
  <path class="fil3" d="M5303 440l0 2c7,4 11,10 11,27l0 161c0,17 -4,24 -11,27l0 2 128 0 3 -50 -6 0c-9,24 -28,33 -47,33l-14 0c-13,0 -13,-8 -13,-16l0 -157c0,-17 4,-23 11,-27l0 -2 -62 0z"/>
  <path class="fil3" d="M5671 561l-14 -26c-1,-2 -4,-7 -4,-10 0,-4 2,-8 5,-10l0 -2 -60 0 0 2c8,3 17,10 26,26l26 47 -32 50c-9,13 -14,17 -20,20l0 1 29 0 31 -57 20 36c4,7 2,17 -7,20l1 1 60 0 0 -1c-4,-2 -11,-8 -20,-23l-34 -61 23 -36c10,-16 22,-22 24,-23l0 -2 -26 0 -28 48z"/>
  <path class="fil3" d="M5256 573c-1,-63 -72,-85 -102,-38 -7,11 -12,27 -12,48 0,29 9,45 14,53 10,14 26,26 47,26 25,0 40,-16 52,-38l-5 -5c-10,16 -23,24 -35,24 -28,-1 -38,-25 -39,-47l80 -23zm-75 9c-4,2 -4,-1 -4,-4 0,-6 0,-31 4,-41 4,-10 11,-14 18,-15 20,-3 26,27 26,44 0,3 -1,3 -4,4l-40 12z"/>
  <path class="fil3" d="M5537 629c-4,3 -7,4 -11,6 -8,4 -14,7 -20,7 -5,0 -10,-2 -13,-6 -4,-4 -4,-11 -4,-17l0 -30 0 0 0 -75 -41 18 0 5c5,0 11,1 11,14l0 55 0 0 0 25c0,8 -1,18 7,25 4,5 11,6 18,6 11,0 22,-5 31,-10 9,-4 16,-9 22,-13l0 -10z"/>
  <path class="fil3" d="M5843 573c-1,-63 -72,-85 -101,-38 -8,11 -13,27 -13,48 0,29 9,45 14,53 10,14 26,26 47,26 25,0 40,-16 52,-38l-5 -5c-10,16 -23,24 -35,24 -28,-1 -38,-25 -38,-47l79 -23zm-75 9c-4,2 -4,-1 -4,-4 0,-6 0,-31 5,-41 4,-10 10,-14 17,-15 20,-3 27,27 27,44 0,3 -2,3 -5,4l-40 12z"/>
  <path class="fil4" d="M5572 514l-37 16c-2,0 -3,0 -5,0l0 -4 42 -19 0 7zm0 11l-31 13c0,-2 -1,-4 -3,-5l34 -15 0 7zm0 10l-30 14 0 -5c0,0 0,-1 0,-2l30 -13 0 6zm0 11l-30 13 0 -6 30 -14 0 7zm0 11l-30 13 0 -7 30 -13 0 7zm0 10l-30 14 0 -7 30 -13 0 6zm0 11l-30 13 0 -6 30 -14 0 7zm0 11l-30 13 0 -7 30 -13 0 7zm0 10l-30 14 0 -7 30 -13 0 6zm0 11l-30 13 0 -7 30 -13 0 7zm0 11c-14,6 -24,10 -31,12l0 -4c7,-4 18,-9 31,-15l0 7zm-35 14c-9,3 -9,1 0,-4l0 4zm35 -4l-30 14 0 -7 30 -13 0 6zm-42 12l0 0 0 0 0 0zm42 -1l-30 13 0 -6 30 -14 0 7 0 0zm2 10l-16 7 -15 0 29 -13c1,2 1,4 2,6zm1 3l0 4 -8 0 8 -4z"/>
  <path class="fil4" d="M5004 659l19 0c50,0 76,-28 88,-46 12,-19 18,-47 18,-70 0,-39 -17,-62 -27,-73 -26,-28 -59,-30 -84,-30l-14 0 0 19c3,-1 7,-2 13,-2 34,0 52,22 61,42 6,17 7,33 7,51 0,20 -2,46 -15,66 -13,20 -30,26 -51,26 -8,0 -12,-1 -15,-4l0 21z"/>
  <path class="fil4" d="M5000 441c-10,4 -27,12 -41,18 0,-3 0,-5 -1,-6l28 -13 14 0 0 1zm-22 -1l-21 10c-1,-3 -3,-4 -4,-6l9 -4 16 0zm22 218l-1 1 -16 0 17 -7 0 6zm0 -10c-7,3 -16,7 -25,11l-15 0c13,-6 30,-13 40,-18 0,3 0,5 0,7zm0 -10c-12,5 -35,15 -48,21l-3 0 0 -2c3,-1 6,-3 8,-7 13,-6 32,-14 43,-19 0,2 0,5 0,7zm0 -11c-11,5 -28,13 -42,19 1,-2 1,-5 2,-8 13,-6 30,-13 40,-17l0 6 0 0zm0 -10c-10,4 -27,12 -40,18 0,-2 0,-3 0,-5l0 -2c13,-6 30,-13 40,-18l0 7zm0 -10c-10,4 -27,11 -40,17l0 -7c13,-5 30,-13 40,-17l0 7zm0 -11c-10,5 -27,12 -40,18l0 -7c13,-6 30,-13 40,-17l0 6zm0 -10c-10,4 -27,12 -40,18l0 -7c13,-6 30,-13 40,-18l0 7zm0 -10c-10,4 -27,11 -40,17l0 -7c13,-5 30,-13 40,-17l0 7zm0 -11c-10,5 -27,12 -40,18l0 -7c13,-6 30,-13 40,-17l0 6zm0 -10c-10,4 -27,12 -40,17l0 -6c13,-6 30,-13 40,-18l0 7zm0 -10c-10,4 -27,11 -40,17l0 -7c13,-6 30,-13 40,-17l0 7zm0 -11c-10,5 -27,12 -40,18l0 -7c13,-6 30,-13 40,-18l0 7zm0 -10c-10,4 -27,12 -40,17l0 -6c13,-6 30,-14 40,-18l0 7zm0 -10c-10,4 -27,11 -40,17l0 -7c13,-6 30,-13 40,-17l0 7zm0 -11c-10,5 -27,12 -40,18l0 -7c13,-6 30,-13 40,-18l0 7zm0 -10c-10,4 -27,11 -40,17l0 -6c13,-6 30,-14 40,-18l0 7zm0 -11c-10,5 -27,12 -40,18l0 -7c13,-6 30,-13 40,-17l0 6zm0 -10c-10,4 -27,12 -40,18l0 -7c13,-6 30,-13 40,-18l0 3c0,1 0,2 0,4l0 0zm0 -10c-10,4 -27,11 -40,17l0 -7c13,-5 30,-13 40,-17 0,2 0,4 0,7zm0 -11c-10,5 -27,12 -40,18 0,-3 0,-5 0,-7 13,-6 30,-13 40,-18 0,3 0,5 0,7z"/>
  <polygon class="fil4" points="4961,286 5273,286 5273,289 4961,289 "/>
  <polygon class="fil4" points="5566,286 5848,286 5848,289 5566,289 "/>
  <path class="fil4" d="M5447 283c22,-8 35,-23 42,-34 10,-16 16,-39 16,-60 0,-33 -15,-53 -24,-62 -22,-24 -51,-26 -72,-26l-12 0 0 17c3,-2 6,-2 11,-2 30,0 45,19 52,36 6,14 7,28 7,43 0,17 -2,39 -13,57 -2,4 -4,6 -7,9l0 22z"/>
  <path class="fil4" d="M5394 102c-9,4 -23,10 -35,15 0,-2 0,-3 -1,-5l24 -10 12 0 0 0zm-19 0l-18 7c-1,-1 -2,-3 -3,-4l8 -3 13 0zm19 186l-1 1 -13 0 14 -6 0 5zm0 -9c-6,3 -13,6 -21,10l-13 0c11,-5 25,-12 34,-15 0,2 0,4 0,5zm0 -8c-11,4 -30,13 -41,18l-3 0 0 -2c3,-1 5,-3 7,-6 12,-5 28,-12 37,-16 0,2 0,4 0,6zm0 -9c-9,4 -24,10 -36,15 1,-1 1,-3 1,-6 12,-5 26,-11 35,-15l0 5 0 1zm0 -9c-9,4 -23,10 -34,15 0,-1 0,-3 0,-4l0 -2c11,-5 25,-11 34,-15l0 6zm0 -9c-9,4 -23,10 -34,15l0 -6c11,-5 25,-11 34,-15l0 6zm0 -9c-9,4 -23,10 -34,15l0 -6c11,-5 25,-11 34,-15l0 6zm0 -9c-9,4 -23,10 -34,15l0 -6c11,-5 25,-11 34,-15l0 6zm0 -9c-9,4 -23,10 -34,15l0 -5c11,-5 25,-12 34,-15l0 5zm0 -8c-9,3 -23,10 -34,15l0 -6c11,-5 25,-12 34,-15l0 6zm0 -9c-9,3 -23,10 -34,15l0 -6c11,-5 25,-11 34,-15l0 6zm0 -9c-9,4 -23,10 -34,15l0 -6c11,-5 25,-11 34,-15l0 6zm0 -9c-9,4 -23,10 -34,15l0 -6c11,-5 25,-11 34,-15l0 6zm0 -9c-9,4 -23,10 -34,15l0 -6c11,-5 25,-11 34,-15l0 6zm0 -9c-9,4 -23,10 -34,15l0 -6c11,-5 25,-11 34,-15l0 6zm0 -9c-9,4 -23,10 -34,15l0 -6c11,-4 25,-11 34,-14l0 5zm0 -9c-9,4 -23,10 -34,15l0 -5c11,-5 25,-12 34,-15l0 5zm0 -8c-9,3 -23,10 -34,15l0 -6c11,-5 25,-11 34,-15l0 6zm0 -9c-9,3 -23,10 -34,15l0 -6c11,-5 25,-11 34,-15l0 2c0,1 0,2 0,4l0 0zm0 -9c-9,4 -23,10 -34,15l0 -6c11,-5 25,-11 34,-15 0,2 0,4 0,6zm0 -9c-9,4 -23,10 -34,15 0,-2 0,-4 0,-6 11,-5 25,-11 34,-15 0,2 0,4 0,6z"/>
  <path class="fil3" d="M5395 148l0 1c6,3 10,9 10,23l0 138c0,15 -4,20 -10,23l0 2 110 0 3 -43 -6 0c-8,20 -27,28 -43,28l-12 0c-11,0 -11,-7 -11,-13l0 -135c0,-14 3,-20 9,-23l0 -1 -50 0z"/>
  <path class="fil3" d="M4984 724l0 14c0,9 5,13 12,13 3,0 7,-1 9,-3l0 0 0 16 7 0 0 -40 -7 0 0 19c-2,1 -4,3 -7,3 -6,0 -7,-4 -7,-9l0 -13 -7 0zm56 -1c-10,0 -17,8 -17,21 0,13 7,21 16,21 9,0 18,-7 18,-21 0,-12 -7,-21 -17,-21zm0 6c7,0 10,8 10,15 0,9 -4,15 -10,15 -7,0 -11,-6 -11,-15 0,-7 3,-15 11,-15zm30 -5l0 16c0,9 0,14 -4,17 -1,1 -2,2 -3,2l0 5c4,0 6,0 7,-2 5,-3 6,-11 6,-22l0 -10 12 0 0 34 6 0 0 -40 -24 0zm52 -1c-9,0 -17,8 -17,21 0,13 7,21 17,21 8,0 17,-7 17,-21 0,-12 -7,-21 -17,-21zm0 6c8,0 11,8 11,15 0,9 -5,15 -11,15 -6,0 -11,-6 -11,-15 0,-7 4,-15 11,-15zm28 35c2,0 6,0 10,0 7,0 18,-1 18,-11 0,-6 -4,-9 -9,-10l0 0c4,-1 8,-4 8,-9 0,-9 -10,-10 -16,-10 -4,0 -9,0 -11,1l0 39zm6 -35c1,0 3,0 5,0 6,0 9,2 9,6 0,4 -5,6 -9,6l-5 0 0 -12zm0 17l5 0c6,0 11,1 11,6 0,6 -7,7 -11,7 -2,0 -3,0 -5,0l0 -13zm39 18l0 -40 -6 0 0 40 6 0zm-3 -55c-2,0 -4,2 -4,4 0,3 2,5 4,5 3,0 4,-2 4,-5 0,-2 -1,-4 -4,-4zm16 15l0 14c0,9 5,13 11,13 4,0 7,-1 10,-3l0 0 0 16 6 0 0 -40 -6 0 0 19c-2,1 -5,3 -8,3 -5,0 -7,-4 -7,-9l0 -13 -6 0zm40 0l0 40 8 0c3,-7 7,-15 11,-21 2,-4 3,-7 5,-12l1 0c-1,6 -1,10 -1,16l0 17 6 0 0 -40 -7 0 -11 21c-2,4 -4,7 -6,12l0 0c0,-6 0,-10 0,-16l0 -17 -6 0zm43 0l0 40 8 0c3,-7 7,-15 10,-21 2,-4 4,-7 6,-12l0 0c0,6 0,10 0,16l0 17 6 0 0 -40 -7 0 -11 21c-3,4 -4,7 -6,12l0 0c0,-6 0,-10 0,-16l0 -17 -6 0zm6 -16c0,6 3,10 9,10 5,0 9,-3 9,-10l-4 0c0,4 -2,6 -5,6 -3,0 -4,-2 -5,-6l-4 0z"/>
  <path class="fil3" d="M5377 723c-10,0 -18,8 -18,21 0,13 8,21 17,21 9,0 17,-7 17,-21 0,-12 -6,-21 -16,-21zm0 6c7,0 10,8 10,15 0,9 -5,15 -11,15 -6,0 -10,-6 -10,-15 0,-7 3,-15 11,-15zm31 -5l0 11c0,5 -1,10 -2,15 -1,3 -2,6 -4,8l-3 0 1 18 5 0 0 -12 24 0 0 12 5 0 1 -18 -4 0 0 -34 -23 0zm5 6l12 0 0 28 -16 0c1,-2 2,-4 3,-7 1,-5 1,-10 1,-15l0 -6zm58 -5c-3,-1 -7,-1 -11,-1 -5,0 -9,1 -12,2 -2,2 -4,5 -4,9 0,6 4,9 9,10l0 0c-2,0 -3,1 -4,2 -3,3 -4,8 -5,12 -1,2 -2,3 -3,5l7 0c1,-1 1,-2 2,-4 1,-3 2,-8 4,-11 2,-1 4,-2 6,-2l5 0 0 17 6 0 0 -39zm-6 17c-1,0 -3,0 -5,0 -4,0 -10,-2 -10,-7 0,-5 5,-6 10,-6 2,0 3,0 5,0l0 13zm19 -18l0 40 7 0 0 -34 15 0 0 -6 -22 0z"/>
  <path class="fil3" d="M5585 760c0,0 0,0 -1,1 -1,0 -1,0 -1,0 -1,0 -1,0 -2,0 0,1 -1,1 -2,1 -1,0 -3,0 -5,1 -1,1 -2,2 -3,4 -1,1 -2,3 -3,4 1,2 3,4 4,5 1,1 2,2 3,3 1,1 2,2 3,2l-2 2c0,-1 -1,-1 -2,-1 0,-1 -1,-1 -1,-1 -2,-2 -3,-3 -5,-4 -1,-1 -2,-2 -3,-3 -5,4 -8,6 -11,7 -3,2 -7,3 -11,3 -5,0 -9,-2 -11,-4 -3,-2 -5,-6 -5,-9 0,-4 2,-7 4,-11 3,-3 8,-7 15,-12 0,-1 0,-3 0,-5 -1,-2 -1,-3 -1,-5 0,-5 3,-10 8,-15 5,-6 10,-8 14,-8 2,0 4,0 5,2 1,1 2,2 2,4 0,4 -3,9 -10,15 -2,2 -4,4 -6,6 -3,2 -5,4 -8,6 2,6 8,13 17,22 0,-1 1,-2 2,-3 1,-1 2,-3 3,-5 -1,0 -2,0 -2,-1 0,-1 0,-1 2,-2 0,0 1,0 3,0 7,0 10,0 10,1zm-14 -37c0,-4 -2,-5 -7,-5 -1,0 -3,0 -5,1 -2,1 -4,3 -6,5 -4,4 -5,8 -5,12 0,2 0,4 0,6 1,1 1,2 1,2 0,1 0,1 0,2 2,-1 4,-3 6,-4 2,-2 4,-3 6,-5 7,-5 10,-10 10,-14zm-7 50c-1,-1 -3,-3 -4,-4 -1,-1 -2,-2 -3,-3 -4,-6 -8,-11 -10,-16 -6,4 -10,7 -12,10 -3,3 -4,7 -4,10 0,4 1,7 3,9 2,2 5,3 9,3 4,0 8,-1 10,-2 2,0 3,-1 5,-3 2,-1 4,-2 6,-4z"/>
  <path class="fil3" d="M5611 764c2,0 6,0 9,0 7,0 19,-1 19,-11 0,-6 -4,-9 -9,-10l0 0c4,-1 7,-4 7,-9 0,-9 -9,-10 -15,-10 -4,0 -9,0 -11,1l0 39zm6 -35c1,0 3,0 5,0 6,0 9,2 9,6 0,4 -5,6 -9,6l-5 0 0 -12zm0 17l4 0c6,0 11,1 11,6 0,6 -6,7 -10,7 -2,0 -4,0 -5,0l0 -13zm36 0l3 0c5,0 10,1 10,6 0,4 -3,7 -8,7 -4,0 -7,-1 -10,-2l-1 4c3,2 7,4 11,4 7,0 15,-4 15,-12 0,-6 -4,-10 -9,-10l0 0c3,-1 7,-4 7,-9 0,-8 -6,-11 -11,-11 -4,0 -9,2 -12,4l2 4c2,-1 5,-2 8,-2 4,0 7,2 7,5 0,4 -4,7 -9,7l-3 0 0 5zm26 -22l12 37c1,1 1,1 1,1 0,1 0,1 -1,2 -1,4 -3,7 -5,8 -2,2 -4,3 -5,4l1 6c2,-1 5,-2 8,-5 4,-4 7,-11 12,-25l9 -28 -6 0 -7 23c-1,3 -2,6 -2,9l-1 0c0,-3 -1,-6 -2,-8l-7 -24 -7 0zm38 0l0 6 11 0 0 34 6 0 0 -34 11 0 0 -6 -28 0zm34 0l0 6 11 0 0 34 7 0 0 -34 10 0 0 -6 -28 0zm62 1c-3,-1 -7,-1 -11,-1 -4,0 -9,1 -11,2 -3,2 -5,5 -5,9 0,6 5,9 9,10l0 0c-1,0 -3,1 -4,2 -3,3 -4,8 -5,12 -1,2 -2,3 -2,5l6 0c1,-1 1,-2 2,-4 1,-3 2,-8 5,-11 1,-1 3,-2 6,-2l4 0 0 17 6 0 0 -39zm-6 17c-1,0 -3,0 -5,0 -4,0 -9,-2 -9,-7 0,-5 5,-6 9,-6 2,0 4,0 5,0l0 13z"/>
 </g>
</svg>
