<?xml version="1.0" encoding="UTF-8"?>
<!DOCTYPE svg PUBLIC "-//W3C//DTD SVG 1.1//EN" "http://www.w3.org/Graphics/SVG/1.1/DTD/svg11.dtd">
<!-- Creator: CorelDRAW X8 -->
<svg xmlns="http://www.w3.org/2000/svg" xml:space="preserve" width="15.2398mm" height="15.2398mm" version="1.1" style="shape-rendering:geometricPrecision; text-rendering:geometricPrecision; image-rendering:optimizeQuality; fill-rule:evenodd; clip-rule:evenodd"
viewBox="0 0 1524 1524"
 xmlns:xlink="http://www.w3.org/1999/xlink">
 <defs>
  <style type="text/css">
   <![CDATA[
    .str0 {stroke:#2B2A29;stroke-width:20}
    .fil2 {fill:#FEFEFE}
    .fil0 {fill:#2B2A29}
    .fil4 {fill:#010101}
    .fil1 {fill:#FEFEFE;fill-rule:nonzero}
    .fil3 {fill:#010101;fill-rule:nonzero}
   ]]>
  </style>
 </defs>
 <g id="Слой_x0020_1">
  <metadata id="CorelCorpID_0Corel-Layer"/>
  <polygon class="fil0 str0" points="-13634,-8745 -12153,-8745 -12153,-7263 -13634,-7263 "/>
  <path class="fil1" d="M-12989 -8065l0 2c7,4 11,10 11,28l0 160c0,17 -4,24 -11,28l0 1 128 0 3 -50 -7 0c-9,24 -28,33 -47,33l-14 0c-12,0 -13,-8 -13,-16l0 -156c0,-18 4,-24 11,-28l0 -2 -61 0z"/>
  <path class="fil1" d="M-12621 -7944l-15 -26c-1,-2 -3,-7 -3,-10 0,-4 1,-8 5,-10l0 -1 -60 0 0 1c8,3 17,10 26,26l26 48 -33 49c-8,13 -14,17 -19,20l0 1 29 0 30 -57 20 36c4,7 3,17 -6,20l0 1 61 0 0 -1c-5,-2 -12,-8 -20,-23l-35 -61 23 -36c11,-16 22,-22 25,-23l0 -1 -26 0 -28 47z"/>
  <path class="fil1" d="M-13036 -7932c-1,-63 -72,-84 -102,-38 -8,11 -13,27 -13,48 0,29 9,46 15,53 9,14 25,26 46,26 26,0 41,-15 53,-38l-5 -5c-11,16 -24,24 -36,24 -28,0 -37,-25 -38,-47l80 -23zm-76 10c-4,1 -4,-2 -4,-5 0,-6 1,-31 5,-41 4,-9 11,-14 17,-15 20,-3 27,27 27,44 0,3 -1,3 -5,4l-40 13z"/>
  <path class="fil1" d="M-12756 -7876c-4,3 -7,4 -11,6 -7,4 -13,7 -20,7 -4,0 -9,-2 -12,-5 -4,-5 -4,-12 -4,-18l0 -30 0 0 0 -75 -42 18 0 5c6,0 12,1 12,15l0 54 0 0 0 26c0,7 -1,17 6,24 5,5 11,6 18,6 11,0 22,-4 32,-9 8,-5 16,-10 21,-14l0 -10z"/>
  <path class="fil1" d="M-12449 -7932c-1,-63 -72,-84 -102,-38 -7,11 -13,27 -13,48 0,29 10,46 15,53 9,14 25,26 46,26 26,0 41,-15 53,-38l-5 -5c-10,16 -24,24 -35,24 -28,0 -38,-25 -39,-47l80 -23zm-75 10c-4,1 -5,-2 -5,-5 0,-6 1,-31 5,-41 4,-9 11,-14 17,-15 21,-3 27,27 27,44 0,3 -1,3 -4,4l-40 13z"/>
  <path class="fil2" d="M-12721 -7991l-36 16c-2,0 -4,0 -5,0l0 -4 41 -19 0 7zm0 11l-30 13c-1,-2 -2,-4 -3,-5l33 -15 0 7zm0 11l-30 13 0 -4c0,-1 0,-2 0,-3l30 -13 0 7zm0 10l-30 14 0 -7 30 -14 0 7zm0 11l-30 13 0 -7 30 -13 0 7zm0 11l-30 13 0 -7 30 -13 0 7zm0 10l-30 14 0 -7 30 -14 0 7zm0 11l-30 13 0 -7 30 -13 0 7zm0 11l-30 13 0 -7 30 -13 0 7zm0 10l-30 14 0 -8 30 -13 0 7zm0 11c-13,6 -23,10 -30,13l0 -5c7,-4 17,-9 30,-15l0 7zm-35 14c-9,3 -8,1 0,-4l0 4zm35 -3l-30 13 0 -7 30 -13 0 7zm-42 11l0 0 0 0 0 0zm42 -1l-30 14 0 -7 30 -14 0 7 0 0zm3 10l-16 7 -16 0 30 -13c0,2 1,4 2,6zm1 3l0 4 -8 0 8 -4z"/>
  <path class="fil2" d="M-13288 -7846l19 0c49,0 76,-28 88,-46 12,-19 18,-46 18,-70 0,-39 -17,-62 -28,-73 -26,-27 -59,-30 -84,-30l-13 0 0 19c2,-1 6,-2 12,-2 35,0 52,22 61,42 7,17 8,34 8,51 0,20 -2,46 -15,67 -13,19 -31,25 -52,25 -7,0 -12,-1 -14,-3l0 20z"/>
  <path class="fil2" d="M-13293 -8064c-10,5 -27,12 -40,18 0,-2 -1,-4 -1,-6l27 -12 14 0 0 0zm-22 0l-21 9c-1,-2 -2,-4 -4,-5l10 -4 15 0zm22 218l-1 0 -15 0 16 -7 0 7zm0 -11c-6,3 -15,7 -24,11l-16 0c14,-6 30,-13 40,-18 0,3 0,5 0,7zm0 -10c-12,5 -34,15 -48,21l-3 0 0 -1c4,-2 6,-4 8,-8 14,-6 33,-14 43,-19 0,2 0,5 0,7zm0 -10c-10,4 -28,12 -41,18 0,-2 1,-5 1,-8 13,-5 30,-13 40,-17l0 6 0 1zm0 -11c-10,5 -26,12 -40,18 0,-2 1,-3 1,-5l0 -2c13,-6 29,-13 39,-18l0 7zm0 -10c-10,4 -26,12 -39,17l0 -6c13,-6 29,-14 39,-18l0 7zm0 -10c-10,4 -26,11 -39,17l0 -7c13,-6 29,-13 39,-17l0 7zm0 -11c-10,5 -26,12 -39,18l0 -7c13,-6 29,-13 39,-18l0 7zm0 -10c-10,4 -26,12 -39,17l0 -6c13,-6 29,-14 39,-18l0 7zm0 -11c-10,5 -26,12 -39,18l0 -7c13,-6 29,-13 39,-17l0 6zm0 -10c-10,4 -26,12 -39,18l0 -7c13,-6 29,-13 39,-18l0 7zm0 -10c-10,4 -26,11 -39,17l0 -7c13,-5 29,-13 39,-17l0 7zm0 -11c-10,5 -26,12 -39,18l0 -7c13,-6 29,-13 39,-17l0 6zm0 -10c-10,4 -26,12 -39,18l0 -7c13,-6 29,-13 39,-18l0 7zm0 -10c-10,4 -26,11 -39,17l0 -7c13,-5 29,-13 39,-17l0 7zm0 -11c-10,5 -26,12 -39,18l0 -7c13,-6 29,-13 39,-17l0 6zm0 -10c-10,4 -26,12 -39,17l0 -6c13,-6 29,-13 39,-18l0 7zm0 -10c-10,4 -26,11 -39,17l0 -7c13,-6 29,-13 39,-17l0 7zm0 -11c-10,5 -26,12 -39,18l0 -7c13,-6 29,-13 39,-18l0 3c0,1 0,3 0,4l0 0zm0 -10c-10,4 -26,12 -39,17l0 -6c13,-6 29,-14 39,-18 0,2 0,5 0,7zm0 -11c-10,5 -26,12 -39,18 0,-2 -1,-5 -1,-7 14,-6 30,-13 40,-17 0,2 0,4 0,6z"/>
  <polygon class="fil2" points="-13332,-8219 -13019,-8219 -13019,-8216 -13332,-8216 "/>
  <polygon class="fil2" points="-12726,-8219 -12445,-8219 -12445,-8216 -12726,-8216 "/>
  <g id="_2072540559392">
   <path class="fil2" d="M-12845 -8222c22,-8 35,-23 42,-34 10,-16 15,-39 15,-60 0,-33 -14,-53 -23,-62 -23,-23 -51,-25 -72,-25l-12 0 0 16c2,-2 6,-2 11,-2 30,0 44,19 52,36 6,14 7,29 7,43 0,17 -2,40 -13,58 -3,3 -5,6 -7,8l0 22z"/>
   <path class="fil2" d="M-12899 -8403c-8,4 -23,10 -34,15 0,-2 -1,-3 -1,-5l23 -10 12 0 0 0zm-19 0l-17 8c-1,-2 -2,-4 -4,-5l8 -3 13 0zm19 186l-1 1 -13 0 14 -6 0 5zm0 -8c-5,2 -13,5 -21,9l-13 0c11,-5 26,-11 34,-15 0,2 0,4 0,6zm0 -9c-10,4 -29,13 -41,18l-2 0 0 -1c3,-2 5,-4 6,-7 12,-5 28,-12 37,-16 0,2 0,4 0,6zm0 -9c-9,4 -24,10 -35,16 0,-2 1,-4 1,-7 11,-5 26,-11 34,-15l0 5 0 1zm0 -9c-8,4 -22,10 -34,15 0,-1 0,-2 0,-4l0 -2c12,-5 26,-11 34,-15l0 6zm0 -9c-8,4 -22,10 -34,15l0 -6c12,-5 26,-11 34,-15l0 6zm0 -9c-8,4 -22,10 -34,15l0 -6c12,-4 26,-11 34,-14l0 5zm0 -9c-8,4 -22,10 -34,15l0 -5c12,-5 26,-12 34,-15l0 5zm0 -8c-8,3 -22,10 -34,15l0 -6c12,-5 26,-11 34,-15l0 6zm0 -9c-8,3 -22,10 -34,15l0 -6c12,-5 26,-11 34,-15l0 6zm0 -9c-8,4 -22,10 -34,15l0 -6c12,-5 26,-11 34,-15l0 6zm0 -9c-8,4 -22,10 -34,15l0 -6c12,-5 26,-11 34,-15l0 6zm0 -9c-8,4 -22,10 -34,15l0 -6c12,-5 26,-11 34,-15l0 6zm0 -9c-8,4 -22,10 -34,15l0 -6c12,-5 26,-11 34,-15l0 6zm0 -9c-8,4 -22,10 -34,15l0 -5c12,-5 26,-12 34,-15l0 5zm0 -9c-8,4 -22,10 -34,15l0 -5c12,-5 26,-12 34,-15l0 5zm0 -8c-8,3 -22,10 -34,15l0 -6c12,-5 26,-11 34,-15l0 6zm0 -9c-8,3 -22,10 -34,15l0 -6c12,-5 26,-11 34,-15l0 6zm0 -9c-8,4 -22,10 -34,15l0 -6c12,-5 26,-11 34,-15l0 2c0,1 0,2 0,4l0 0zm0 -9c-8,4 -22,10 -34,15l0 -6c12,-5 26,-11 34,-15 0,2 0,4 0,6zm0 -9c-8,4 -22,10 -34,15 0,-2 0,-4 0,-6 12,-5 26,-11 34,-15 0,2 0,4 0,6z"/>
   <path class="fil1" d="M-12897 -8357l0 1c6,3 9,9 9,24l0 137c0,15 -3,20 -9,24l0 1 110 0 2 -43 -6 0c-7,20 -27,29 -43,29l-12 0c-10,0 -11,-8 -11,-14l0 -134c0,-15 3,-21 9,-24l0 -1 -49 0z"/>
  </g>
  <g id="_2072540556096">
   <path class="fil1" d="M-13308 -7781l0 14c0,9 5,13 11,13 4,0 7,-1 10,-3l0 0 0 16 6 0 0 -40 -6 0 0 19c-2,2 -5,3 -8,3 -5,0 -7,-4 -7,-9l0 -13 -6 0zm55 -1c-9,0 -17,8 -17,21 0,13 7,21 17,21 8,0 17,-7 17,-21 0,-12 -7,-21 -17,-21zm0 6c8,0 11,8 11,15 0,9 -5,15 -11,15 -6,0 -10,-6 -10,-15 0,-7 3,-15 10,-15zm30 -5l0 16c0,9 0,15 -3,17 -1,1 -2,2 -4,2l1 6c3,0 5,-1 7,-3 4,-3 5,-11 5,-22l0 -10 12 0 0 34 7 0 0 -40 -25 0zm53 -1c-10,0 -17,8 -17,21 0,13 7,21 16,21 9,0 18,-7 18,-21 0,-12 -7,-21 -17,-21zm0 6c7,0 10,8 10,15 0,9 -4,15 -10,15 -7,0 -11,-6 -11,-15 0,-7 3,-15 11,-15zm27 35c2,0 6,0 10,0 7,0 19,-1 19,-11 0,-6 -4,-9 -9,-10l0 0c4,-1 7,-4 7,-9 0,-9 -10,-10 -15,-10 -5,0 -9,0 -12,1l0 39zm7 -35c1,0 2,0 4,0 7,0 10,2 10,6 0,4 -5,6 -10,6l-4 0 0 -12zm-1 17l5 0c6,0 11,1 11,7 0,5 -6,6 -10,6 -2,0 -4,0 -6,0l0 -13zm40 18l0 -40 -6 0 0 40 6 0zm-3 -55c-2,0 -4,2 -4,4 0,3 1,5 4,5 2,0 4,-2 4,-5 0,-2 -2,-4 -4,-4zm15 15l0 14c0,9 5,13 12,13 3,0 7,-1 9,-3l0 0 0 16 7 0 0 -40 -7 0 0 19c-2,2 -4,3 -7,3 -6,0 -7,-4 -7,-9l0 -13 -7 0zm41 0l0 40 7 0c4,-7 8,-15 11,-21 2,-4 4,-7 6,-12l0 0c0,6 0,10 0,16l0 17 6 0 0 -40 -8 0 -11 21c-2,4 -3,7 -5,12l0 0c0,-6 0,-10 0,-16l0 -17 -6 0zm43 0l0 40 7 0c4,-7 8,-15 11,-21 2,-4 4,-7 6,-12l0 0c0,6 0,10 0,16l0 17 6 0 0 -40 -8 0 -11 21c-2,4 -3,7 -5,12l0 0c0,-6 0,-10 0,-16l0 -17 -6 0zm5 -16c1,6 3,10 9,10 6,0 10,-3 10,-10l-5 0c0,4 -1,7 -4,7 -3,0 -5,-3 -5,-7l-5 0z"/>
   <path class="fil1" d="M-12916 -7782c-9,0 -17,8 -17,21 0,13 7,21 17,21 8,0 17,-7 17,-21 0,-12 -7,-21 -17,-21zm0 6c8,0 11,8 11,15 0,9 -5,15 -11,15 -6,0 -11,-6 -11,-15 0,-7 4,-15 11,-15zm31 -5l0 11c0,5 0,11 -2,15 -1,3 -2,6 -3,8l-3 1 0 17 5 0 0 -12 25 0 0 12 5 0 0 -17 -3 -1 0 -34 -24 0zm6 6l11 0 0 28 -16 0c1,-2 2,-4 3,-7 1,-4 2,-9 2,-15l0 -6zm58 -5c-3,-1 -7,-1 -11,-1 -5,0 -9,1 -12,3 -3,1 -5,4 -5,8 0,6 5,9 10,10l0 0c-2,1 -3,1 -4,2 -4,3 -4,9 -6,12 -1,2 -1,4 -2,5l7 0c0,-1 1,-2 1,-3 2,-4 2,-9 5,-11 1,-2 3,-3 6,-3l5 0 0 17 6 0 0 -39zm-6 17c-2,0 -3,0 -6,0 -4,0 -9,-1 -9,-6 0,-6 5,-7 9,-7 3,0 4,0 6,0l0 13zm19 -18l0 40 6 0 0 -34 15 0 0 -6 -21 0z"/>
   <path class="fil1" d="M-12708 -7745c0,0 0,0 -1,1 0,0 0,0 -1,0 0,0 -1,1 -1,1 -1,0 -1,0 -3,0 -1,0 -3,1 -5,1 0,1 -1,2 -2,4 -1,1 -2,3 -3,5 1,1 2,3 4,5 1,0 2,1 3,2 1,1 2,2 2,3l-1 1c-1,0 -1,-1 -2,-1 -1,0 -1,-1 -2,-1 -1,-1 -3,-2 -4,-3 -1,-2 -2,-3 -3,-4 -5,4 -9,6 -12,8 -3,1 -7,2 -11,2 -4,0 -8,-2 -11,-4 -3,-2 -4,-5 -4,-9 0,-4 1,-7 4,-10 3,-4 8,-8 15,-13 0,-1 -1,-3 -1,-5 0,-1 0,-3 0,-5 0,-5 2,-10 8,-15 5,-6 9,-8 14,-8 2,0 3,0 5,2 1,1 1,3 1,4 0,4 -3,9 -9,15 -2,2 -5,4 -7,6 -2,2 -5,4 -7,6 2,6 7,13 16,22 1,-1 2,-2 3,-3 1,-1 2,-3 3,-4 -2,0 -3,-1 -3,-2 0,0 1,-1 2,-2 0,0 2,0 3,0 7,0 10,0 10,1zm-14 -37c0,-3 -2,-5 -6,-5 -2,0 -4,0 -6,1 -2,1 -4,3 -5,5 -4,4 -6,8 -6,13 0,1 0,3 1,5 0,1 0,2 0,2 1,1 1,2 1,2 2,-1 4,-3 6,-4 2,-2 4,-3 6,-5 6,-5 9,-10 9,-14zm-7 50c-1,-1 -2,-2 -3,-4 -1,-1 -2,-2 -3,-3 -5,-5 -8,-11 -11,-16 -5,4 -9,8 -12,11 -2,3 -3,6 -3,9 0,4 1,7 3,9 2,2 5,3 8,3 5,0 8,0 11,-2 1,0 3,-1 4,-2 2,-2 4,-3 6,-5z"/>
   <path class="fil1" d="M-12682 -7741c2,0 6,0 10,0 7,0 18,-1 18,-11 0,-6 -3,-9 -8,-10l0 0c4,-1 7,-4 7,-9 0,-9 -10,-10 -16,-10 -4,0 -8,0 -11,1l0 39zm6 -35c2,0 3,0 5,0 7,0 10,2 10,6 0,4 -5,6 -10,6l-5 0 0 -12zm0 17l5 0c6,0 11,1 11,7 0,5 -6,6 -11,6 -2,0 -3,0 -5,0l0 -13zm36 0l4 0c5,0 10,1 10,7 0,4 -4,6 -9,6 -3,0 -7,-1 -9,-2l-2 5c3,1 7,3 12,3 7,0 15,-3 15,-12 0,-6 -5,-9 -10,-10l0 0c4,-1 8,-4 8,-9 0,-8 -7,-10 -12,-10 -4,0 -8,1 -11,3l1 5c3,-2 6,-3 9,-3 4,0 6,2 6,6 0,3 -3,6 -9,6l-3 0 0 5zm26 -22l13 37c0,1 0,1 0,2 0,0 0,1 0,1 -1,4 -4,7 -5,8 -2,2 -4,3 -6,4l2 6c1,0 4,-2 7,-5 5,-4 8,-11 12,-24l10 -29 -7 0 -7 24c-1,2 -1,5 -2,8l0 0c-1,-3 -1,-6 -2,-8l-8 -24 -7 0zm39 0l0 6 11 0 0 34 6 0 0 -34 11 0 0 -6 -28 0zm34 0l0 6 11 0 0 34 6 0 0 -34 11 0 0 -6 -28 0zm62 1c-3,-1 -7,-1 -11,-1 -5,0 -9,1 -12,3 -3,1 -4,4 -4,8 0,6 4,9 9,10l0 0c-2,1 -3,1 -4,2 -3,3 -4,9 -6,12 0,2 -1,4 -2,5l7 0c0,-1 1,-2 1,-3 2,-4 3,-9 5,-11 2,-2 3,-3 6,-3l5 0 0 17 6 0 0 -39zm-6 17c-2,0 -3,0 -6,0 -3,0 -9,-1 -9,-6 0,-6 5,-7 10,-7 2,0 3,0 5,0l0 13z"/>
  </g>
  <polygon class="fil2 str0" points="16,16 1498,16 1498,1498 16,1498 "/>
  <path class="fil3" d="M661 696l0 2c7,4 11,10 11,27l0 161c0,17 -4,24 -11,27l0 2 128 0 3 -50 -7 0c-8,24 -27,33 -46,33l-14 0c-13,0 -13,-8 -13,-16l0 -157c0,-17 3,-23 10,-27l0 -2 -61 0z"/>
  <path class="fil3" d="M1029 817l-14 -26c-1,-2 -4,-7 -4,-10 0,-4 2,-8 5,-10l0 -2 -60 0 0 2c8,3 17,10 26,26l26 47 -33 50c-8,13 -13,17 -19,20l0 1 29 0 31 -57 19 36c5,7 3,17 -6,20l0 1 61 0 0 -1c-4,-2 -12,-8 -20,-23l-34 -61 22 -36c11,-16 22,-22 25,-23l0 -2 -26 0 -28 48z"/>
  <path class="fil3" d="M614 829c-1,-63 -72,-84 -102,-38 -7,11 -13,27 -13,48 0,29 10,45 15,53 9,14 25,26 46,26 26,0 41,-16 53,-38l-5 -5c-10,16 -24,24 -35,24 -28,-1 -38,-25 -39,-47l80 -23zm-75 9c-4,2 -4,-1 -4,-4 0,-6 0,-31 4,-41 4,-10 11,-14 17,-15 21,-3 27,27 27,44 0,3 -1,3 -4,4l-40 12z"/>
  <path class="fil3" d="M895 885c-4,3 -7,4 -11,6 -8,4 -14,7 -21,7 -4,0 -9,-2 -12,-6 -4,-4 -4,-11 -4,-17l0 -30 0 0 0 -75 -41 18 0 5c5,0 11,1 11,14l0 55 0 0 0 25c0,8 -1,18 7,25 4,5 11,6 17,6 11,0 22,-5 32,-10 9,-4 16,-9 22,-13l0 -10z"/>
  <path class="fil3" d="M1201 829c-1,-63 -72,-84 -102,-38 -7,11 -12,27 -12,48 0,29 9,45 14,53 10,14 26,26 47,26 25,0 40,-16 52,-38l-5 -5c-10,16 -23,24 -35,24 -28,-1 -38,-25 -39,-47l80 -23zm-75 9c-4,2 -4,-1 -4,-4 0,-6 0,-31 4,-41 5,-10 11,-14 18,-15 20,-3 27,27 27,44 0,3 -2,3 -5,4l-40 12z"/>
  <path class="fil4" d="M930 770l-37 16c-2,0 -3,0 -5,0l0 -4 42 -19 0 7zm0 11l-31 13c-1,-2 -2,-4 -3,-5l34 -15 0 7zm0 10l-31 14 0 -5c0,0 0,-1 0,-2l31 -13 0 6zm0 11l-31 13 0 -6 31 -14 0 7zm0 11l-31 13 0 -7 31 -13 0 7zm0 10l-31 14 0 -7 31 -13 0 6zm0 11l-31 13 0 -6 31 -14 0 7zm0 11l-31 13 0 -7 31 -13 0 7zm0 10l-31 14 0 -7 31 -13 0 6zm0 11l-31 13 0 -7 31 -13 0 7zm0 11c-14,6 -24,10 -31,12l0 -4c7,-4 18,-9 31,-15l0 7zm-35 14c-9,3 -9,1 0,-4l0 4zm35 -4l-31 14 0 -7 31 -13 0 6zm-43 12l0 0 1 0 -1 0zm43 -1l-31 13 0 -6 31 -14 0 7 0 0zm2 10l-16 7 -15 0 29 -13c0,2 1,4 2,6zm1 3l0 4 -8 0 8 -4z"/>
  <path class="fil4" d="M362 915l19 0c50,0 76,-28 88,-46 12,-19 18,-46 18,-70 0,-39 -17,-62 -27,-73 -27,-28 -60,-30 -84,-30l-14 0 0 19c3,-1 7,-2 12,-2 35,0 53,22 61,42 7,17 8,33 8,51 0,20 -2,46 -15,66 -13,20 -31,26 -51,26 -8,0 -12,-1 -15,-4l0 21z"/>
  <path class="fil4" d="M358 697c-10,4 -27,12 -41,18 0,-3 -1,-5 -1,-6l28 -13 14 0 0 1zm-23 -1l-20 10c-1,-3 -3,-4 -4,-6l9 -4 15 0zm23 218l-2 1 -15 0 17 -7 0 6zm0 -10c-7,3 -16,7 -25,11l-15 0c13,-6 30,-13 40,-18 0,3 0,5 0,7zm0 -10c-12,5 -35,15 -49,21l-2 0 0 -2c3,-1 6,-3 8,-7 13,-6 32,-14 43,-19 0,2 0,5 0,7zm0 -11c-11,5 -28,13 -42,19 1,-2 1,-5 1,-8 14,-6 30,-13 41,-17l0 6 0 0zm0 -10c-10,5 -27,12 -40,18 0,-2 0,-3 0,-5l0 -2c13,-6 30,-13 40,-18l0 7zm0 -10c-10,4 -27,11 -40,17l0 -7c13,-5 30,-13 40,-17l0 7zm0 -11c-10,5 -27,12 -40,18l0 -7c13,-6 30,-13 40,-17l0 6zm0 -10c-10,4 -27,12 -40,18l0 -7c13,-6 30,-13 40,-18l0 7zm0 -10c-10,4 -27,11 -40,17l0 -7c13,-5 30,-13 40,-17l0 7zm0 -11c-10,5 -27,12 -40,18l0 -7c13,-6 30,-13 40,-17l0 6zm0 -10c-10,4 -27,12 -40,17l0 -6c13,-6 30,-13 40,-18l0 7zm0 -10c-10,4 -27,11 -40,17l0 -7c13,-6 30,-13 40,-17l0 7zm0 -11c-10,5 -27,12 -40,18l0 -7c13,-6 30,-13 40,-18l0 7zm0 -10c-10,4 -27,12 -40,17l0 -6c13,-6 30,-14 40,-18l0 7zm0 -10c-10,4 -27,11 -40,17l0 -7c13,-6 30,-13 40,-17l0 7zm0 -11c-10,5 -27,12 -40,18l0 -7c13,-6 30,-13 40,-18l0 7zm0 -10c-10,4 -27,11 -40,17l0 -6c13,-6 30,-14 40,-18l0 7zm0 -11c-10,5 -27,12 -40,18l0 -7c13,-6 30,-13 40,-17l0 6zm0 -10c-10,4 -27,12 -40,18l0 -7c13,-6 30,-13 40,-18l0 3c0,1 0,2 0,4l0 0zm0 -10c-10,4 -27,11 -40,17l0 -7c13,-5 30,-13 40,-17 0,2 0,4 0,7zm0 -11c-10,5 -27,12 -40,18 0,-3 0,-5 0,-7 13,-6 30,-13 40,-17 0,2 0,4 0,6z"/>
  <polygon class="fil4" points="318,542 631,542 631,545 318,545 "/>
  <polygon class="fil4" points="924,542 1206,542 1206,545 924,545 "/>
  <path class="fil4" d="M805 539c22,-8 35,-23 42,-34 10,-16 16,-39 16,-60 0,-33 -15,-53 -24,-62 -22,-24 -51,-25 -72,-25l-12 0 0 16c3,-2 6,-2 11,-2 30,0 45,19 52,36 6,14 7,28 7,43 0,17 -2,39 -13,57 -2,4 -5,7 -7,9l0 22z"/>
  <path class="fil4" d="M752 358c-9,4 -23,10 -35,15 0,-2 -1,-3 -1,-5l24 -10 12 0 0 0zm-19 0l-18 7c-1,-1 -2,-3 -4,-4l9 -3 13 0zm19 186l-1 1 -14 0 15 -6 0 5zm0 -9c-6,3 -14,6 -21,10l-14 0c12,-5 26,-12 35,-15 0,2 0,4 0,5zm0 -8c-11,4 -30,13 -42,18l-2 0 0 -2c3,-1 5,-3 7,-6 12,-5 28,-12 37,-16 0,2 0,4 0,6zm0 -9c-9,4 -24,10 -36,15 1,-1 1,-3 1,-6 12,-5 26,-11 35,-15l0 5 0 1zm0 -9c-9,4 -23,10 -34,15 0,-1 0,-3 0,-4l0 -2c11,-5 25,-11 34,-15l0 6zm0 -9c-9,4 -23,10 -34,15l0 -6c11,-5 25,-11 34,-15l0 6zm0 -9c-9,4 -23,10 -34,15l0 -6c11,-5 25,-11 34,-15l0 6zm0 -9c-9,4 -23,10 -34,15l0 -6c11,-5 25,-11 34,-15l0 6zm0 -9c-9,4 -23,10 -34,15l0 -5c11,-5 25,-12 34,-15l0 5zm0 -8c-9,3 -23,10 -34,15l0 -6c11,-5 25,-12 34,-15l0 6zm0 -9c-9,3 -23,10 -34,15l0 -6c11,-5 25,-11 34,-15l0 6zm0 -9c-9,4 -23,10 -34,15l0 -6c11,-5 25,-11 34,-15l0 6zm0 -9c-9,4 -23,10 -34,15l0 -6c11,-5 25,-11 34,-15l0 6zm0 -9c-9,4 -23,10 -34,15l0 -6c11,-5 25,-11 34,-15l0 6zm0 -9c-9,4 -23,10 -34,15l0 -6c11,-5 25,-11 34,-15l0 6zm0 -9c-9,4 -23,10 -34,15l0 -5c11,-5 25,-12 34,-15l0 5zm0 -9c-9,4 -23,10 -34,15l0 -5c11,-5 25,-12 34,-15l0 5zm0 -8c-9,3 -23,10 -34,15l0 -6c11,-5 25,-11 34,-15l0 6zm0 -9c-9,3 -23,10 -34,15l0 -6c11,-5 25,-11 34,-15l0 2c0,1 0,2 0,4l0 0zm0 -9c-9,4 -23,10 -34,15l0 -6c11,-5 25,-11 34,-15 0,2 0,4 0,6zm0 -9c-9,4 -23,10 -34,15 0,-2 0,-4 -1,-6 12,-5 26,-11 35,-15 0,2 0,4 0,6z"/>
  <path class="fil3" d="M753 404l0 1c6,3 9,9 9,23l0 138c0,15 -3,20 -9,23l0 2 110 0 2 -43 -5 0c-8,20 -27,28 -44,28l-12 0c-10,0 -11,-7 -11,-13l0 -135c0,-14 4,-20 10,-23l0 -1 -50 0z"/>
  <path class="fil3" d="M342 980l0 14c0,9 5,13 12,13 3,0 7,-1 9,-3l0 0 0 16 6 0 0 -40 -6 0 0 19c-2,1 -5,3 -7,3 -6,0 -7,-4 -7,-9l0 -13 -7 0zm56 -1c-10,0 -18,8 -18,21 0,13 8,21 17,21 9,0 17,-7 17,-21 0,-12 -6,-21 -16,-21zm0 6c7,0 10,8 10,15 0,9 -5,15 -11,15 -6,0 -10,-6 -10,-15 0,-7 3,-15 11,-15zm30 -5l0 16c0,9 -1,15 -4,17 -1,1 -2,2 -3,2l0 5c4,0 5,0 7,-2 5,-3 6,-11 6,-22l0 -10 12 0 0 34 6 0 0 -40 -24 0zm52 -1c-10,0 -17,8 -17,21 0,13 7,21 17,21 8,0 17,-7 17,-21 0,-12 -7,-21 -17,-21zm0 6c7,0 10,8 10,15 0,9 -4,15 -10,15 -6,0 -11,-6 -11,-15 0,-7 3,-15 11,-15zm28 35c2,0 6,0 10,0 6,0 18,-1 18,-11 0,-6 -4,-9 -9,-10l0 0c4,-1 7,-4 7,-9 0,-9 -9,-10 -15,-10 -4,0 -9,0 -11,1l0 39zm6 -35c1,0 3,0 5,0 6,0 9,2 9,6 0,4 -5,6 -9,6l-5 0 0 -12zm0 17l4 0c6,0 11,1 11,6 0,6 -6,7 -10,7 -2,0 -3,0 -5,0l0 -13zm39 18l0 -40 -6 0 0 40 6 0zm-3 -55c-2,0 -4,2 -4,4 0,3 2,5 4,5 3,0 4,-2 4,-5 0,-2 -1,-4 -4,-4zm16 15l0 14c0,9 4,13 11,13 3,0 7,-1 10,-3l0 0 0 16 6 0 0 -40 -6 0 0 19c-2,1 -5,3 -8,3 -5,0 -7,-4 -7,-9l0 -13 -6 0zm40 0l0 40 8 0c3,-7 7,-15 10,-21 2,-4 4,-7 6,-12l0 0c0,6 0,10 0,16l0 17 6 0 0 -40 -7 0 -11 21c-3,4 -4,7 -6,12l0 0c0,-6 0,-10 0,-16l0 -17 -6 0zm43 0l0 40 7 0c4,-7 8,-15 11,-21 2,-4 4,-7 6,-12l0 0c0,6 0,10 0,16l0 17 6 0 0 -40 -7 0 -11 21c-3,4 -4,7 -6,12l0 0c0,-6 0,-10 0,-16l0 -17 -6 0zm6 -16c0,6 2,10 9,10 5,0 9,-3 9,-10l-4 0c-1,4 -2,6 -5,6 -3,0 -5,-2 -5,-6l-4 0z"/>
  <path class="fil3" d="M735 979c-10,0 -18,8 -18,21 0,13 8,21 17,21 8,0 17,-7 17,-21 0,-12 -6,-21 -16,-21zm-1 6c8,0 11,8 11,15 0,9 -5,15 -11,15 -6,0 -10,-6 -10,-15 0,-7 3,-15 10,-15zm32 -5l0 11c0,5 -1,10 -2,15 -1,3 -2,6 -4,8l-3 0 0 18 5 0 1 -12 24 0 0 12 5 0 0 -18 -3 0 0 -34 -23 0zm5 6l12 0 0 28 -16 0c1,-2 2,-4 2,-7 2,-4 2,-10 2,-15l0 -6zm58 -5c-3,-1 -7,-1 -11,-1 -5,0 -9,1 -12,2 -2,2 -4,5 -4,9 0,6 4,9 9,10l0 0c-2,0 -3,1 -4,2 -3,3 -4,8 -6,12 0,2 -1,3 -2,5l7 0c1,-1 1,-2 1,-4 2,-3 3,-8 5,-11 2,-1 4,-2 6,-2l5 0 0 17 6 0 0 -39zm-6 17c-2,0 -3,0 -6,0 -3,0 -9,-2 -9,-7 0,-5 5,-6 10,-6 2,0 3,0 5,0l0 13zm19 -18l0 40 7 0 0 -34 15 0 0 -6 -22 0z"/>
  <path class="fil3" d="M943 1016c0,0 -1,0 -1,1 -1,0 -1,0 -2,0 0,0 0,0 -1,1 0,0 -1,0 -2,0 -2,0 -3,0 -5,1 -1,1 -2,2 -3,4 -1,1 -2,3 -3,4 1,2 2,4 4,5 1,1 2,2 3,3 1,1 2,2 3,2l-2 2c0,-1 -1,-1 -2,-1 0,-1 -1,-1 -2,-1 -1,-2 -2,-3 -4,-4 -1,-1 -2,-2 -3,-3 -5,4 -8,6 -11,7 -4,2 -7,3 -11,3 -5,0 -9,-2 -12,-4 -2,-2 -4,-5 -4,-9 0,-4 1,-7 4,-11 3,-3 8,-7 15,-12 0,-1 0,-3 -1,-5 0,-2 0,-3 0,-5 0,-5 3,-10 8,-15 5,-6 10,-8 14,-8 2,0 4,0 5,2 1,1 2,2 2,4 0,4 -4,9 -10,15 -2,2 -4,4 -7,6 -2,2 -4,4 -7,6 2,6 8,13 16,22 1,-1 2,-2 3,-3 1,-1 2,-3 3,-5 -2,0 -2,0 -2,-1 0,-1 0,-1 1,-2 1,0 2,0 4,0 6,0 10,0 10,1zm-14 -37c0,-4 -3,-5 -7,-5 -2,0 -4,0 -6,1 -1,1 -3,3 -5,5 -4,4 -5,8 -6,12 0,2 1,4 1,6 0,1 1,2 1,2 0,1 0,1 0,2 2,-1 4,-3 6,-4 2,-2 4,-3 6,-5 6,-5 10,-10 10,-14zm-7 50c-2,-1 -3,-3 -4,-4 -1,-1 -2,-2 -3,-3 -5,-6 -8,-11 -10,-16 -6,4 -10,7 -12,10 -3,3 -4,7 -4,10 0,4 1,7 3,9 2,2 5,3 9,3 4,0 8,-1 10,-2 1,0 3,-1 5,-3 1,-1 3,-2 6,-4z"/>
  <path class="fil3" d="M969 1020c1,0 5,0 9,0 7,0 19,-1 19,-11 0,-6 -4,-9 -9,-10l0 0c4,-1 7,-4 7,-9 0,-9 -10,-10 -15,-10 -4,0 -9,0 -11,1l0 39zm6 -35c1,0 2,0 5,0 6,0 9,2 9,6 0,4 -5,6 -10,6l-4 0 0 -12zm0 17l4 0c6,0 11,1 11,6 0,6 -6,7 -10,7 -2,0 -4,0 -5,0l0 -13zm36 0l3 0c5,0 10,1 10,6 0,4 -3,7 -9,7 -3,0 -6,-1 -9,-2l-1 4c3,2 7,4 11,4 7,0 15,-4 15,-12 0,-6 -4,-10 -10,-10l0 0c4,-1 8,-4 8,-9 0,-8 -6,-11 -12,-11 -4,0 -8,2 -11,4l1 4c3,-1 6,-2 9,-2 4,0 7,2 7,5 0,4 -4,7 -9,7l-3 0 0 5zm25 -22l13 37c1,1 1,1 1,2 0,0 0,0 -1,1 -1,4 -3,7 -5,8 -2,2 -4,3 -6,4l2 6c2,-1 5,-2 8,-5 4,-4 7,-11 12,-25l9 -28 -6 0 -7 23c-1,3 -2,6 -3,9l0 0c0,-3 -1,-6 -2,-8l-8 -24 -7 0zm39 0l0 6 11 0 0 34 6 0 0 -34 11 0 0 -6 -28 0zm34 0l0 6 11 0 0 34 6 0 0 -34 11 0 0 -6 -28 0zm62 1c-3,-1 -7,-1 -11,-1 -4,0 -9,1 -12,2 -2,2 -4,5 -4,9 0,6 5,9 9,10l0 0c-2,0 -3,1 -4,2 -3,3 -4,8 -5,12 -1,2 -2,3 -3,5l7 0c1,-1 1,-2 2,-4 1,-3 2,-8 5,-11 1,-1 3,-2 5,-2l5 0 0 17 6 0 0 -39zm-6 17c-1,0 -3,0 -5,0 -4,0 -10,-2 -10,-7 0,-5 5,-6 10,-6 2,0 3,0 5,0l0 13z"/>
 </g>
</svg>
