<?xml version="1.0" encoding="UTF-8"?>
<!DOCTYPE svg PUBLIC "-//W3C//DTD SVG 1.1//EN" "http://www.w3.org/Graphics/SVG/1.1/DTD/svg11.dtd">
<!-- Creator: CorelDRAW X8 -->
<svg xmlns="http://www.w3.org/2000/svg" xml:space="preserve" width="86.5mm" height="76.5mm" version="1.1" style="shape-rendering:geometricPrecision; text-rendering:geometricPrecision; image-rendering:optimizeQuality; fill-rule:evenodd; clip-rule:evenodd"
viewBox="0 0 8650 7650"
 xmlns:xlink="http://www.w3.org/1999/xlink">
 <defs>
  <style type="text/css">
   <![CDATA[
    .str0 {stroke:#2B2A29;stroke-width:20}
    .fil0 {fill:#FEFEFE}
    .fil2 {fill:#010101}
    .fil1 {fill:#010101;fill-rule:nonzero}
   ]]>
  </style>
 </defs>
 <g id="Layer_x0020_1">
  <metadata id="CorelCorpID_0Corel-Layer"/>
  <polygon class="fil0 str0" points="217,260 8148,260 8148,7261 217,7261 "/>
  <path class="fil1" d="M3669 3475l0 8c40,17 59,48 59,130l0 758c0,81 -19,112 -59,130l0 8 688 0 16 -235 -37 0c-48,111 -149,155 -251,155l-75 0c-66,0 -69,-40 -69,-75l0 -741c0,-82 20,-113 57,-130l0 -8 -329 0z"/>
  <path class="fil1" d="M5640 4047l-78 -126c-4,-7 -19,-31 -19,-47 0,-16 9,-36 27,-47l0 -6 -319 0 0 6c40,16 88,47 137,124l140 224 -175 235c-46,59 -74,81 -102,93l0 6 155 0 162 -269 106 168c22,36 14,81 -34,95l2 6 323 0 0 -6c-22,-11 -60,-36 -106,-107l-183 -290 121 -169c57,-76 118,-104 131,-110l0 -6 -138 0 -150 226z"/>
  <path class="fil1" d="M3418 4103c-5,-300 -386,-400 -545,-180 -40,51 -68,126 -68,227 0,136 49,214 77,249 52,67 137,124 249,124 136,0 217,-74 281,-178l-27 -25c-54,76 -125,112 -189,112 -149,-2 -201,-118 -205,-220l427 -109zm-403 44c-22,6 -22,-6 -22,-22 0,-28 1,-145 25,-194 21,-44 57,-67 92,-71 108,-13 144,127 144,207 0,18 -7,17 -25,22l-214 58z"/>
  <path class="fil1" d="M4921 4366c-22,13 -39,21 -60,30 -40,18 -73,31 -107,31 -26,0 -52,-7 -68,-25 -20,-22 -20,-54 -20,-82l0 -144 0 0 0 -353 -222 87 0 20c28,2 60,7 60,70l0 256 0 0 0 123c0,35 -3,81 37,115 24,22 58,29 95,29 59,0 118,-22 169,-45 46,-23 85,-45 116,-64l0 -48z"/>
  <path class="fil1" d="M6562 4103c-5,-300 -386,-400 -545,-180 -40,51 -68,126 -68,227 0,136 49,214 77,249 51,67 137,124 249,124 136,0 217,-74 280,-178l-26 -25c-55,76 -126,112 -189,112 -150,-2 -201,-118 -205,-220l427 -109zm-404 44c-21,6 -22,-6 -22,-22 0,-28 2,-145 25,-194 22,-44 57,-67 93,-71 107,-13 144,127 144,207 0,18 -7,17 -26,22l-214 58z"/>
  <path class="fil2" d="M5108 3824l-197 77c-8,-3 -17,-4 -25,-4l0 -19 222 -86 0 32zm0 50l-165 64c-3,-12 -7,-20 -13,-26l178 -70 0 32zm0 51l-162 63 0 -21c0,-4 0,-8 0,-11l162 -64 0 33zm0 50l-162 63 0 -32 162 -63 0 32zm0 50l-162 63 0 -32 162 -63 0 32zm0 51l-162 63 0 -32 162 -63 0 32zm0 50l-162 63 0 -32 162 -63 0 32zm0 51l-162 63 0 -32 162 -64 0 33zm0 50l-162 63 0 -32 162 -63 0 32zm0 50l-162 63 0 -35 162 -60 0 32zm0 51c-72,28 -126,48 -163,60l0 -23c38,-18 92,-41 163,-69l0 32zm-187 67c-49,14 -47,6 0,-18l0 18zm187 -17l-162 63 0 -32 162 -63 0 32zm-226 56l0 0 1 0 -1 0zm226 -5l-162 63 0 -32 162 -64 0 30 0 3zm13 45l-85 33 -83 0 157 -61c2,9 5,19 11,28zm6 16l0 17 -44 0 44 -17z"/>
  <path class="fil2" d="M2068 4509l102 0c267,0 409,-132 472,-219 64,-88 98,-218 98,-331 0,-184 -93,-293 -148,-345 -140,-128 -317,-139 -450,-139l-74 0 0 90c15,-8 36,-10 68,-10 186,0 279,103 326,199 37,77 42,157 42,238 0,94 -11,217 -82,316 -69,93 -164,121 -274,121 -40,0 -65,-7 -80,-17l0 97z"/>
  <path class="fil2" d="M2046 3478c-54,21 -145,57 -217,85 -1,-11 -4,-21 -7,-30l148 -57 76 0 0 2zm-119 -2l-112 43c-5,-10 -12,-17 -21,-24l50 -19 83 0zm119 1030l-7 3 -82 0 89 -35 0 32zm0 -49c-34,14 -83,33 -132,52l-83 0c71,-28 162,-63 215,-84 0,11 0,22 0,32zm0 -49c-65,26 -184,72 -258,101l-14 0 0 -8c17,-7 31,-18 41,-35 73,-28 174,-67 231,-90 0,11 0,22 0,32zm-1 -48c-55,21 -149,58 -221,86 3,-10 5,-22 7,-35 71,-28 161,-63 214,-83l0 27 0 5zm0 -49c-53,20 -142,55 -213,83 0,-7 1,-15 1,-22l0 -11c70,-27 159,-62 212,-82l0 32zm0 -49c-53,20 -142,55 -212,83l0 -33c70,-27 159,-62 212,-82l0 32zm0 -49c-53,21 -142,55 -212,83l0 -33c70,-27 159,-62 212,-82l0 32zm0 -49c-53,21 -142,55 -212,83l0 -32c70,-28 159,-63 212,-83l0 32zm0 -49c-53,21 -142,55 -212,83l0 -32c70,-28 159,-62 212,-83l0 32zm0 -49c-53,21 -142,55 -212,83l0 -32c70,-28 159,-62 212,-83l0 32zm0 -49c-53,21 -142,55 -212,83l0 -32c70,-28 159,-62 212,-83l0 32zm0 -49c-53,21 -142,55 -212,83l0 -32c70,-28 159,-62 212,-83l0 32zm0 -49c-53,21 -142,55 -212,83l0 -32c70,-28 159,-62 212,-83l0 32zm0 -49c-53,21 -142,55 -212,83l0 -32c70,-28 159,-62 212,-83l0 32zm0 -49c-53,21 -142,55 -212,83l0 -32c70,-28 159,-62 212,-83l0 32zm0 -49c-53,21 -142,56 -212,83l0 -32c70,-28 159,-62 212,-83l0 32zm0 -49c-53,21 -142,56 -212,83l0 -32c70,-28 159,-62 212,-83l0 32zm0 -48c-53,20 -142,55 -212,82l0 -32c70,-27 159,-62 212,-83l0 33zm0 -49c-53,20 -142,55 -212,82l0 -32c71,-28 160,-62 213,-83l0 13c-1,6 -1,12 -1,19l0 1zm1 -50c-53,21 -142,56 -213,83l0 -32c71,-28 160,-62 213,-83 0,11 0,22 0,32zm0 -49c-53,21 -142,56 -213,83 0,-11 -1,-22 -2,-31 72,-28 162,-63 215,-84 0,11 0,22 0,32z"/>
  <polygon class="fil2" points="1836,2746 3510,2746 3510,2761 1836,2761 "/>
  <polygon class="fil2" points="5079,2746 6585,2746 6585,2761 5079,2761 "/>
  <path class="fil2" d="M4441 2733c117,-38 187,-109 225,-161 54,-76 83,-187 83,-283 0,-158 -79,-251 -126,-296 -120,-110 -272,-119 -385,-119l-63 0 0 77c12,-7 31,-8 58,-8 159,0 238,88 279,170 31,66 35,134 35,204 0,81 -9,186 -69,270 -12,16 -24,29 -37,41l0 105z"/>
  <path class="fil2" d="M4156 1877c-47,18 -125,48 -186,72 -2,-9 -4,-18 -6,-25l127 -49 65 0 0 2zm-102 -2l-96 37c-5,-8 -11,-15 -18,-21l43 -16 71 0zm102 882l-6 3 -71 0 77 -30 0 27zm0 -42c-30,12 -72,28 -114,45l-71 0c62,-24 139,-54 185,-72 0,9 0,18 0,27zm0 -41c-56,21 -158,61 -222,86l-12 0 0 -7c16,-7 27,-16 36,-30 63,-24 148,-58 198,-77 0,9 0,18 0,28zm-1 -42c-48,18 -128,50 -190,74 3,-9 5,-19 6,-30 61,-24 138,-54 184,-72l0 24 0 4zm0 -42c-46,18 -122,47 -183,71 1,-6 1,-12 1,-19l0 -9c60,-23 136,-53 182,-71l0 28zm0 -42c-46,18 -122,47 -182,71l0 -28c60,-23 136,-53 182,-70l0 27zm0 -42c-46,18 -122,47 -182,71l0 -28c60,-23 136,-53 182,-70l0 27zm0 -42c-46,18 -122,47 -182,71l0 -27c60,-24 136,-54 182,-71l0 27zm0 -42c-46,18 -122,48 -182,71l0 -27c60,-24 136,-54 182,-71l0 27zm0 -42c-46,18 -122,48 -182,71l0 -27c60,-24 136,-53 182,-71l0 27zm0 -42c-46,18 -122,48 -182,71l0 -27c60,-24 136,-53 182,-71l0 27zm0 -41c-46,17 -122,47 -182,70l0 -27c60,-24 136,-53 182,-71l0 28zm0 -42c-46,17 -122,47 -182,70l0 -27c60,-24 136,-53 182,-71l0 28zm0 -42c-46,17 -122,47 -182,71l0 -28c60,-24 136,-53 182,-71l0 28zm0 -42c-46,17 -122,47 -182,71l0 -28c60,-23 136,-53 182,-71l0 28zm0 -42c-46,18 -122,47 -182,71l0 -28c60,-23 136,-53 182,-71l0 28zm0 -42c-46,18 -122,47 -182,71l0 -28c60,-23 136,-53 182,-71l0 28zm0 -42c-46,18 -122,47 -182,71l0 -28c60,-23 136,-53 182,-70l0 27zm0 -42c-46,18 -122,47 -182,71l0 -28c61,-23 137,-53 183,-71l0 11c-1,5 -1,11 -1,16l0 1zm1 -42c-46,18 -122,47 -183,71l0 -27c61,-24 137,-54 183,-72 0,10 0,19 0,28zm0 -42c-46,18 -122,47 -183,71 0,-10 -1,-19 -1,-27 61,-24 138,-54 184,-72 0,10 0,19 0,28z"/>
  <path class="fil1" d="M4162 2092l0 6c34,16 50,42 50,112l0 649c0,70 -16,96 -50,112l0 6 589 0 13 -201 -31 0c-41,95 -144,133 -231,133l-64 0c-57,0 -60,-35 -60,-65l0 -634c0,-70 18,-96 50,-112l0 -6 -266 0z"/>
  <path class="fil1" d="M1963 4817l0 65c0,43 26,61 61,61 18,0 38,-6 51,-14l1 0 0 74 33 0 0 -186 -33 0 0 88c-11,8 -26,13 -40,13 -30,0 -39,-16 -39,-40l0 -61 -34 0zm297 -4c-52,0 -92,36 -92,99 0,59 39,96 89,96 45,0 93,-30 93,-99 0,-57 -36,-96 -90,-96zm-1 25c40,0 56,40 56,72 0,42 -24,72 -56,72 -34,0 -57,-31 -57,-71 0,-36 17,-73 57,-73zm162 -21l0 75c0,42 -2,68 -19,81 -5,4 -12,6 -19,7l4 27c17,0 27,-4 37,-12 24,-15 29,-50 29,-103l0 -48 64 0 0 159 34 0 0 -186 -130 0zm280 -4c-51,0 -92,36 -92,99 0,59 39,96 89,96 45,0 93,-30 93,-99 0,-57 -36,-96 -90,-96zm0 25c40,0 56,40 56,72 0,42 -25,72 -57,72 -33,0 -57,-31 -57,-71 0,-36 18,-73 58,-73zm149 165c10,1 31,3 52,3 37,0 98,-6 98,-55 0,-27 -20,-43 -47,-47l0 0c21,-5 39,-19 39,-42 0,-42 -52,-47 -83,-47 -22,0 -46,2 -59,4l0 184zm32 -163c8,-1 15,-1 26,-1 34,0 50,8 50,27 0,22 -26,29 -51,29l-25 0 0 -55zm0 78l24 0c33,0 60,5 60,32 0,27 -34,33 -57,33 -11,0 -18,-1 -27,-2l0 -63zm211 85l0 -186 -34 0 0 186 34 0zm-17 -260c-12,0 -21,10 -21,22 0,11 9,20 21,20 13,0 22,-9 21,-20 0,-12 -8,-22 -21,-22zm83 74l0 65c0,43 26,61 62,61 17,0 37,-6 50,-14l1 0 0 74 33 0 0 -186 -33 0 0 88c-10,8 -25,13 -40,13 -30,0 -39,-16 -39,-40l0 -61 -34 0zm218 0l0 186 38 0c21,-32 41,-68 59,-97 10,-19 19,-34 31,-58l1 0c-2,30 -3,46 -3,76l0 79 33 0 0 -186 -40 0 -58 96c-12,22 -19,35 -30,58l-1 -1c1,-26 2,-45 2,-74l0 -79 -32 0zm229 0l0 186 39 0c20,-32 41,-68 59,-97 10,-19 18,-34 30,-58l2 0c-2,30 -3,46 -3,76l0 79 33 0 0 -186 -40 0 -58 96c-13,22 -19,35 -30,58l-1 -1c1,-26 1,-45 1,-74l0 -79 -32 0zm30 -76c1,27 14,48 48,48 30,0 50,-16 52,-48l-25 0c-2,17 -9,29 -26,29 -15,0 -23,-12 -25,-29l-24 0z"/>
  <path class="fil1" d="M4063 4813c-51,0 -92,36 -92,99 0,59 39,96 89,96 45,0 93,-30 93,-99 0,-57 -36,-96 -90,-96zm-1 25c41,0 56,40 56,72 0,42 -24,72 -56,72 -33,0 -57,-31 -57,-71 0,-36 17,-73 57,-73zm168 -21l0 48c0,27 -4,52 -11,75 -5,13 -11,26 -19,38l-16 0 2 85 27 0 1 -60 129 0 2 60 27 0 1 -85 -19 0 0 -161 -124 0zm30 26l61 0 0 135 -86 0c6,-11 11,-22 15,-35 6,-21 10,-45 10,-69l0 -31zm310 -25c-17,-1 -38,-3 -60,-3 -25,0 -48,3 -63,12 -14,8 -25,22 -25,41 0,28 25,43 50,46l0 1c-9,2 -16,6 -21,11 -17,14 -22,38 -30,56 -3,8 -7,15 -11,21l36 0c3,-4 5,-9 8,-15 7,-18 12,-41 26,-52 7,-7 17,-11 31,-11l25 0 0 78 34 0 0 -185zm-34 84c-8,0 -15,0 -29,0 -20,0 -50,-8 -50,-32 0,-26 28,-33 51,-33 12,0 20,1 28,2l0 63zm104 -85l0 186 34 0 0 -159 81 0 0 -27 -115 0z"/>
  <path class="fil1" d="M5178 4984c0,2 -2,3 -6,5 -3,0 -5,1 -7,2 -2,1 -4,1 -6,2 -3,1 -7,2 -14,3 -6,0 -15,1 -26,2 -4,6 -9,12 -14,19 -6,7 -11,14 -17,23 6,7 13,15 23,23 6,4 10,8 15,12 5,4 10,8 14,12l-8 7c-3,-2 -6,-4 -10,-6 -3,-1 -7,-3 -10,-5 -8,-5 -16,-10 -22,-15 -7,-5 -13,-10 -18,-16 -25,17 -45,28 -61,35 -17,7 -37,10 -59,10 -25,0 -45,-6 -60,-17 -15,-11 -23,-26 -23,-43 0,-18 7,-34 22,-49 15,-16 42,-35 81,-59 -2,-7 -4,-14 -5,-23 -1,-8 -1,-17 -2,-25 0,-22 14,-45 42,-71 27,-26 53,-39 77,-39 10,0 18,3 25,10 6,6 10,13 10,22 0,17 -18,40 -53,71 -11,8 -22,17 -34,26 -12,9 -26,18 -40,27 11,29 40,64 88,106 4,-3 8,-8 13,-14 5,-6 10,-13 16,-22 -8,0 -12,-1 -13,-5 0,-4 4,-8 11,-11 1,-1 7,-1 17,-2 36,0 54,2 54,5zm-76 -174c0,-16 -11,-24 -33,-24 -11,0 -21,2 -32,7 -10,5 -20,12 -30,22 -19,19 -28,39 -29,60 0,7 2,16 5,26 0,4 1,7 2,10 1,3 2,6 3,10 11,-8 21,-15 32,-22 10,-7 21,-14 32,-22 33,-24 50,-47 50,-67zm-37 235c-6,-5 -12,-10 -18,-15 -6,-5 -12,-10 -17,-16 -25,-26 -44,-51 -55,-76 -32,19 -53,36 -66,50 -12,14 -18,29 -18,46 0,17 5,30 16,41 12,10 27,15 46,15 23,0 42,-3 55,-8 7,-3 16,-8 25,-14 9,-6 20,-13 32,-23z"/>
  <path class="fil1" d="M5316 5003c10,1 32,3 52,3 37,0 99,-6 99,-55 0,-27 -20,-43 -48,-47l0 0c22,-5 39,-19 39,-42 0,-42 -51,-47 -83,-47 -22,0 -46,2 -59,4l0 184zm32 -163c9,-1 15,-1 27,-1 34,0 50,8 50,27 0,22 -26,29 -51,29l-26 0 0 -55zm0 78l25 0c32,0 59,5 59,32 0,27 -34,33 -57,33 -10,0 -17,-1 -27,-2l0 -63zm193 0l17 0c28,0 55,7 55,32 0,19 -18,32 -46,32 -18,0 -36,-5 -50,-12l-8 22c16,10 38,15 60,15 39,0 81,-15 81,-55 0,-28 -23,-44 -51,-47l0 -1c21,-4 42,-19 42,-42 0,-36 -35,-49 -63,-49 -22,0 -44,5 -62,17l8 21c13,-8 30,-13 45,-13 21,0 36,10 36,27 0,17 -19,30 -47,30l-17 0 0 23zm138 -101l69 172c2,4 3,7 3,9 0,2 -1,4 -3,8 -8,17 -19,30 -28,38 -10,8 -22,13 -30,16l8 29c9,-2 25,-8 42,-22 23,-20 40,-53 64,-117l51 -133 -36 0 -37 109c-5,14 -8,28 -12,39l-1 0c-3,-11 -7,-25 -12,-38l-41 -110 -37 0zm208 0l0 27 58 0 0 159 33 0 0 -159 59 0 0 -27 -150 0zm182 0l0 27 58 0 0 159 34 0 0 -159 58 0 0 -27 -150 0zm333 1c-17,-1 -38,-3 -61,-3 -24,0 -47,3 -62,12 -14,8 -25,22 -25,41 0,28 25,43 50,46l0 1c-9,2 -16,6 -22,11 -16,14 -21,38 -29,56 -3,8 -7,15 -11,21l36 0c3,-4 5,-9 8,-15 7,-18 12,-41 26,-52 7,-7 17,-11 31,-11l25 0 0 78 34 0 0 -185zm-34 84c-8,0 -15,0 -29,0 -20,0 -50,-8 -50,-32 0,-26 28,-33 51,-33 12,0 20,1 28,2l0 63z"/>
 </g>
</svg>
