<?xml version="1.0" encoding="UTF-8"?>
<!DOCTYPE svg PUBLIC "-//W3C//DTD SVG 1.1//EN" "http://www.w3.org/Graphics/SVG/1.1/DTD/svg11.dtd">
<!-- Creator: CorelDRAW X8 -->
<svg xmlns="http://www.w3.org/2000/svg" xml:space="preserve" width="80mm" height="80mm" version="1.1" style="shape-rendering:geometricPrecision; text-rendering:geometricPrecision; image-rendering:optimizeQuality; fill-rule:evenodd; clip-rule:evenodd"
viewBox="0 0 8000 8000"
 xmlns:xlink="http://www.w3.org/1999/xlink">
 <defs>
  <style type="text/css">
   <![CDATA[
    .str0 {stroke:#2B2A29;stroke-width:20}
    .fil2 {fill:#FEFEFE}
    .fil0 {fill:#2B2A29}
    .fil1 {fill:#FEFEFE;fill-rule:nonzero}
   ]]>
  </style>
 </defs>
 <g id="Layer_x0020_1">
  <metadata id="CorelCorpID_0Corel-Layer"/>
  <polygon class="fil0 str0" points="69,499 8000,499 8000,7500 69,7500 "/>
  <path class="fil1" d="M3521 3714l0 8c40,17 59,48 59,130l0 758c0,81 -19,112 -59,130l0 7 688 0 16 -234 -37 0c-47,110 -149,155 -251,155l-75 0c-66,0 -69,-40 -69,-76l0 -740c0,-82 21,-113 57,-130l0 -8 -329 0z"/>
  <path class="fil1" d="M5493 4285l-79 -125c-4,-7 -19,-31 -19,-47 0,-16 9,-36 27,-47l0 -6 -319 0 0 6c40,16 89,47 137,124l140 224 -175 235c-46,59 -74,81 -102,93l0 5 155 0 162 -268 107 168c22,35 13,81 -34,95l1 5 323 0 0 -5c-22,-11 -60,-36 -106,-107l-183 -291 121 -168c58,-77 118,-105 131,-110l0 -6 -137 0 -150 225z"/>
  <path class="fil1" d="M3271 4342c-6,-300 -386,-400 -546,-181 -40,52 -68,127 -68,228 0,136 49,214 77,249 52,67 137,124 250,124 135,0 217,-74 280,-178l-26 -25c-55,76 -126,112 -189,112 -150,-2 -201,-118 -206,-220l428 -109zm-404 44c-21,6 -22,-6 -22,-22 0,-28 1,-145 25,-194 22,-44 57,-67 92,-72 108,-12 144,128 144,208 0,18 -6,17 -25,22l-214 58z"/>
  <path class="fil1" d="M4773 4604c-21,14 -38,22 -59,31 -40,18 -74,31 -108,31 -25,0 -52,-7 -68,-25 -19,-22 -19,-54 -19,-82l0 -144 0 0 0 -353 -223 87 0 20c28,1 60,7 60,70l0 256 0 0 0 123c0,35 -3,81 37,115 24,22 58,29 95,29 59,0 118,-22 170,-46 45,-22 84,-44 115,-64l0 -48z"/>
  <path class="fil1" d="M6414 4342c-5,-300 -386,-400 -545,-181 -40,52 -68,127 -68,228 0,136 49,214 77,249 51,67 137,124 249,124 136,0 217,-74 281,-178l-27 -25c-54,76 -125,112 -189,112 -149,-2 -201,-118 -205,-220l427 -109zm-403 44c-22,6 -22,-6 -22,-22 0,-28 1,-145 25,-194 21,-44 56,-67 92,-72 108,-12 144,128 144,208 0,18 -7,17 -25,22l-214 58z"/>
  <path class="fil2" d="M4961 4063l-198 77c-8,-3 -17,-4 -25,-4l0 -19 223 -86 0 32zm0 50l-166 64c-2,-12 -7,-20 -13,-26l179 -70 0 32zm0 51l-163 63 0 -21c0,-4 0,-8 0,-11l163 -64 0 33zm0 50l-163 63 0 -32 163 -63 0 32zm0 50l-163 63 0 -32 163 -63 0 32zm0 51l-163 63 0 -32 163 -63 0 32zm0 50l-163 63 0 -32 163 -63 0 32zm0 50l-163 64 0 -33 163 -63 0 32zm0 51l-163 63 0 -32 163 -63 0 32zm0 50l-163 63 0 -35 163 -60 0 32zm0 51c-73,28 -127,48 -164,60l0 -23c38,-18 93,-41 164,-69l0 32zm-188 67c-49,14 -47,6 0,-18l0 18zm188 -17l-163 63 0 -32 163 -63 0 32zm-227 56l0 0 2 -1 -2 1zm227 -6l-163 64 0 -33 163 -63 0 30 0 2zm13 46l-86 33 -83 0 157 -61c2,9 5,19 12,28zm5 16l0 17 -44 0 44 -17z"/>
  <path class="fil2" d="M1921 4747l101 0c267,0 409,-131 473,-218 63,-89 97,-218 97,-331 0,-184 -93,-293 -148,-345 -140,-128 -317,-139 -450,-139l-73 0 0 89c14,-7 36,-9 67,-9 186,0 279,103 326,199 37,77 42,157 42,238 0,94 -11,217 -81,316 -70,93 -164,121 -275,121 -40,0 -64,-7 -79,-18l0 97z"/>
  <path class="fil2" d="M1898 3717c-54,21 -145,57 -216,85 -2,-12 -5,-21 -8,-30l149 -57 75 0 0 2zm-119 -2l-111 43c-6,-10 -13,-18 -21,-24l50 -19 82 0zm119 1030l-6 3 -83 0 89 -35 0 32zm0 -49c-34,13 -83,33 -132,52l-83 0c72,-28 162,-63 215,-84 0,11 0,22 0,32zm0 -49c-65,26 -184,72 -258,101l-14 0 0 -8c18,-8 31,-18 41,-35 74,-28 174,-68 231,-90 0,11 0,22 0,32zm-1 -48c-55,21 -149,58 -221,86 3,-10 6,-22 7,-35 71,-28 161,-63 214,-83l0 27 0 5zm0 -49c-53,20 -142,55 -213,83 1,-7 1,-15 1,-22l0 -11c71,-27 159,-62 212,-82l0 32zm0 -49c-53,20 -141,55 -212,82l0 -32c71,-27 159,-62 212,-82l0 32zm0 -49c-53,20 -141,55 -212,83l0 -33c71,-27 159,-62 212,-82l0 32zm0 -49c-53,21 -141,55 -212,83l0 -33c71,-27 159,-62 212,-82l0 32zm0 -49c-53,21 -141,55 -212,83l0 -32c71,-28 159,-63 212,-83l0 32zm0 -49c-53,21 -141,55 -212,83l0 -32c71,-28 159,-63 212,-83l0 32zm0 -49c-53,21 -141,55 -212,83l0 -32c71,-28 159,-62 212,-83l0 32zm0 -49c-53,21 -141,55 -212,83l0 -32c71,-28 159,-62 212,-83l0 32zm0 -49c-53,21 -141,55 -212,83l0 -32c71,-28 159,-62 212,-83l0 32zm0 -49c-53,21 -141,55 -212,83l0 -32c71,-28 159,-62 212,-83l0 32zm0 -49c-53,21 -141,55 -212,83l0 -32c71,-28 159,-62 212,-83l0 32zm0 -49c-53,21 -141,55 -212,83l0 -32c71,-28 159,-62 212,-83l0 32zm0 -49c-53,21 -141,55 -212,83l0 -32c71,-28 159,-62 212,-83l0 32zm0 -49c-53,21 -141,56 -212,83l0 -32c71,-28 159,-62 212,-83l0 32zm0 -49c-53,21 -141,56 -212,83l0 -32c71,-28 160,-62 213,-83l0 13c0,6 -1,12 -1,19l0 0zm1 -49c-53,21 -142,55 -213,83l0 -32c71,-28 160,-62 213,-83 0,11 0,21 0,32zm0 -49c-53,21 -142,56 -213,83 0,-11 -1,-22 -2,-31 72,-28 162,-63 215,-84 0,11 0,22 0,32z"/>
  <polygon class="fil2" points="1689,2985 3363,2985 3363,3000 1689,3000 "/>
  <polygon class="fil2" points="4932,2985 6437,2985 6437,3000 4932,3000 "/>
  <path class="fil2" d="M4293 2972c117,-38 187,-109 225,-161 55,-76 84,-187 84,-283 0,-158 -80,-252 -127,-296 -120,-110 -271,-119 -385,-119l-63 0 0 77c12,-7 31,-8 58,-8 159,0 239,88 279,170 32,66 36,134 36,204 0,81 -9,186 -70,270 -12,16 -24,29 -37,41l0 105z"/>
  <path class="fil2" d="M4008 2116c-46,18 -124,48 -186,72 -1,-9 -3,-18 -6,-25l127 -49 65 0 0 2zm-102 -2l-96 37c-5,-9 -11,-15 -18,-21l43 -16 71 0zm102 882l-6 2 -71 0 77 -29 0 27zm0 -42c-29,12 -71,28 -114,44l-70 0c61,-23 138,-53 184,-71 0,9 0,18 0,27zm0 -42c-56,22 -158,62 -221,86l-13 0 0 -6c16,-7 28,-16 36,-30 63,-25 149,-58 198,-77 0,9 0,18 0,27zm-1 -41c-47,18 -128,50 -190,74 3,-9 5,-19 6,-30 61,-24 138,-54 184,-72l0 24 0 4zm0 -42c-46,18 -122,47 -182,71 0,-6 0,-12 0,-19l0 -9c61,-23 137,-53 182,-71l0 28zm0 -42c-45,18 -121,47 -182,71l0 -28c61,-23 137,-53 182,-71l0 28zm0 -42c-45,18 -121,47 -182,71l0 -28c61,-23 137,-53 182,-70l0 27zm0 -42c-45,18 -121,47 -182,71l0 -28c61,-23 137,-53 182,-70l0 27zm0 -42c-45,18 -121,47 -182,71l0 -27c61,-24 137,-54 182,-71l0 27zm0 -42c-45,18 -121,48 -182,71l0 -27c61,-24 137,-54 182,-71l0 27zm0 -42c-45,18 -121,48 -182,71l0 -27c61,-24 137,-53 182,-71l0 27zm0 -42c-45,18 -121,48 -182,71l0 -27c61,-24 137,-53 182,-71l0 27zm0 -41c-45,17 -121,47 -182,70l0 -27c61,-24 137,-53 182,-71l0 28zm0 -42c-45,17 -121,47 -182,70l0 -27c61,-24 137,-53 182,-71l0 28zm0 -42c-45,17 -121,47 -182,71l0 -28c61,-24 137,-53 182,-71l0 28zm0 -42c-45,17 -121,47 -182,71l0 -28c61,-23 137,-53 182,-71l0 28zm0 -42c-45,18 -121,47 -182,71l0 -28c61,-23 137,-53 182,-71l0 28zm0 -42c-45,18 -121,47 -182,71l0 -28c61,-23 137,-53 182,-71l0 28zm0 -42c-45,18 -121,47 -182,71l0 -28c61,-23 137,-53 183,-71l0 11c-1,5 -1,10 -1,16l0 1zm1 -42c-46,17 -122,47 -183,71l0 -28c61,-23 137,-53 183,-71 0,10 0,19 0,28zm0 -42c-46,18 -122,47 -183,71 0,-10 0,-19 -1,-27 61,-24 138,-54 184,-72 0,10 0,19 0,28z"/>
  <path class="fil1" d="M4014 2331l0 6c34,15 51,42 51,112l0 649c0,70 -17,96 -51,111l0 7 589 0 13 -201 -31 0c-41,95 -144,133 -231,133l-64 0c-57,0 -60,-35 -60,-65l0 -634c0,-70 18,-97 50,-112l0 -6 -266 0z"/>
  <path class="fil1" d="M1815 5056l0 65c0,43 26,61 62,61 17,0 37,-6 50,-14l1 0 0 74 34 0 0 -186 -34 0 0 88c-10,7 -25,13 -40,13 -30,0 -39,-16 -39,-40l0 -61 -34 0zm297 -4c-51,0 -92,36 -92,99 0,59 39,96 89,96 45,0 93,-30 93,-99 0,-57 -36,-96 -90,-96zm0 25c40,0 56,40 56,72 0,42 -25,72 -57,72 -33,0 -57,-31 -57,-71 0,-36 18,-73 58,-73zm161 -21l0 75c0,42 -2,68 -19,81 -5,3 -12,6 -19,7l4 27c17,0 28,-4 37,-12 24,-15 29,-51 29,-103l0 -49 64 0 0 160 34 0 0 -186 -130 0zm281 -4c-52,0 -93,36 -93,99 0,59 39,96 90,96 45,0 92,-30 92,-99 0,-57 -36,-96 -89,-96zm-1 25c40,0 56,40 56,72 0,42 -25,72 -57,72 -33,0 -57,-31 -57,-71 0,-36 18,-73 58,-73zm149 165c10,1 31,3 52,3 37,0 99,-6 99,-55 0,-27 -21,-43 -48,-47l0 0c21,-5 39,-19 39,-42 0,-42 -52,-47 -83,-47 -22,0 -46,2 -59,4l0 184zm32 -163c8,-1 15,-2 26,-2 34,0 51,9 51,28 0,22 -26,29 -51,29l-26 0 0 -55zm0 77l24 0c33,0 60,6 60,33 0,27 -34,33 -57,33 -11,0 -18,-1 -27,-2l0 -64zm212 86l0 -186 -34 0 0 186 34 0zm-17 -260c-13,0 -22,9 -22,21 0,12 9,21 21,21 13,0 22,-9 21,-21 0,-12 -8,-21 -20,-21zm83 74l0 65c0,43 25,61 61,61 18,0 38,-6 50,-14l1 0 0 74 34 0 0 -186 -34 0 0 88c-10,7 -25,13 -40,13 -30,0 -38,-16 -38,-40l0 -61 -34 0zm217 0l0 186 39 0c20,-32 40,-68 58,-97 11,-19 19,-34 31,-58l1 0c-2,30 -2,46 -2,76l0 79 32 0 0 -186 -40 0 -58 96c-12,22 -19,35 -30,58l-1 -1c1,-26 2,-45 2,-75l0 -78 -32 0zm230 0l0 186 39 0c20,-32 40,-68 58,-97 11,-19 19,-34 31,-58l1 0c-2,30 -2,46 -2,76l0 79 32 0 0 -186 -40 0 -58 96c-12,22 -19,35 -30,58l-1 -1c1,-26 2,-45 2,-75l0 -78 -32 0zm29 -76c2,27 15,48 49,48 29,0 49,-16 51,-48l-24 0c-2,17 -10,29 -27,29 -15,0 -23,-13 -24,-29l-25 0z"/>
  <path class="fil1" d="M3916 5052c-52,0 -93,36 -93,99 0,59 39,96 89,96 46,0 93,-30 93,-99 0,-57 -36,-96 -89,-96zm-1 25c40,0 56,40 56,72 0,42 -25,72 -57,72 -33,0 -57,-31 -57,-71 0,-36 18,-73 58,-73zm167 -21l0 48c0,27 -4,52 -11,75 -4,13 -10,26 -19,38l-15 0 1 85 27 0 1 -60 130 0 1 60 27 0 2 -85 -20 0 0 -161 -124 0zm30 26l61 0 0 135 -86 0c6,-11 11,-22 15,-35 6,-21 10,-45 10,-69l0 -31zm310 -25c-16,-2 -38,-3 -60,-3 -24,0 -47,3 -63,12 -14,8 -24,21 -24,41 0,28 25,43 49,46l0 1c-8,2 -15,6 -21,11 -17,14 -21,38 -29,56 -4,8 -8,15 -12,21l36 0c3,-4 6,-9 8,-15 7,-18 12,-41 26,-52 7,-7 17,-11 31,-11l25 0 0 78 34 0 0 -185zm-34 84c-7,0 -15,0 -29,0 -20,0 -49,-8 -49,-32 0,-26 27,-33 50,-33 12,0 20,1 28,2l0 63zm105 -85l0 186 33 0 0 -159 81 0 0 -27 -114 0z"/>
  <path class="fil1" d="M5030 5223c0,2 -2,3 -6,5 -2,0 -4,1 -6,2 -2,0 -5,1 -7,2 -2,1 -7,2 -14,2 -6,1 -15,2 -26,3 -4,6 -9,12 -14,19 -5,7 -11,14 -17,23 6,7 14,15 24,23 5,4 10,8 15,12 4,4 9,8 14,12l-9 7c-3,-2 -6,-4 -10,-6 -3,-1 -6,-3 -10,-5 -8,-5 -15,-10 -22,-15 -7,-5 -13,-10 -18,-16 -24,17 -45,28 -61,35 -17,7 -36,10 -59,10 -24,0 -44,-6 -59,-17 -15,-11 -23,-26 -24,-43 0,-18 8,-34 23,-49 15,-16 42,-35 81,-59 -3,-7 -4,-15 -6,-23 -1,-8 -1,-17 -1,-26 0,-21 13,-44 41,-70 28,-26 54,-39 78,-39 9,0 18,3 24,10 7,5 10,13 10,22 0,17 -17,40 -53,70 -10,9 -22,18 -34,27 -12,9 -25,18 -39,27 11,29 40,64 87,106 4,-4 9,-8 14,-14 4,-6 10,-13 15,-22 -8,0 -12,-2 -12,-5 0,-4 3,-8 10,-11 2,-1 7,-1 18,-2 35,0 53,2 53,5zm-76 -174c0,-16 -11,-24 -33,-24 -11,0 -21,2 -31,7 -11,4 -21,12 -30,22 -19,19 -29,39 -30,60 0,7 2,15 5,26 1,4 2,7 2,10 1,3 2,6 4,10 10,-8 21,-15 31,-22 11,-7 21,-14 32,-22 33,-24 50,-47 50,-67zm-37 235c-6,-5 -12,-10 -18,-15 -6,-5 -12,-11 -17,-16 -25,-26 -43,-51 -55,-77 -31,20 -53,36 -65,51 -12,14 -19,29 -19,46 0,17 6,30 17,41 11,10 26,15 45,15 23,0 42,-3 56,-8 7,-3 15,-8 24,-14 10,-6 20,-13 32,-23z"/>
  <path class="fil1" d="M5168 5242c10,1 32,3 53,3 36,0 98,-6 98,-55 0,-27 -20,-43 -47,-47l0 0c21,-5 39,-19 39,-42 0,-42 -52,-47 -83,-47 -22,0 -47,2 -60,4l0 184zm33 -163c8,-1 15,-2 26,-2 34,0 50,9 50,28 0,22 -26,29 -51,29l-25 0 0 -55zm-1 77l25 0c32,0 59,6 59,33 0,27 -34,33 -56,33 -11,0 -18,-1 -28,-2l0 -64zm194 1l17 0c28,0 54,7 54,32 0,19 -18,32 -46,32 -18,0 -36,-5 -49,-13l-9 23c16,9 38,15 60,15 40,0 81,-15 81,-55 0,-28 -23,-45 -51,-47l0 -1c21,-4 42,-19 42,-42 0,-36 -35,-49 -63,-49 -22,0 -43,5 -62,17l8 21c13,-8 30,-13 45,-13 22,0 37,10 37,27 0,17 -20,30 -48,30l-16 0 0 23zm138 -101l69 172c1,4 2,7 2,9 0,2 -1,4 -3,8 -7,17 -19,30 -28,38 -10,8 -21,13 -30,16l9 29c8,-2 25,-8 41,-22 23,-20 40,-53 64,-117l51 -133 -36 0 -37 109c-4,14 -8,28 -12,39l0 0c-4,-11 -8,-26 -12,-38l-41 -110 -37 0zm207 0l0 27 58 0 0 159 34 0 0 -159 58 0 0 -27 -150 0zm182 0l0 27 59 0 0 159 33 0 0 -159 58 0 0 -27 -150 0zm333 1c-16,-2 -38,-3 -60,-3 -25,0 -47,3 -63,12 -14,8 -24,21 -24,41 0,28 25,43 49,46l0 1c-9,2 -16,6 -21,11 -17,14 -21,38 -30,56 -3,8 -7,15 -11,21l36 0c3,-4 5,-9 8,-15 7,-18 12,-41 26,-52 7,-7 17,-11 31,-11l25 0 0 78 34 0 0 -185zm-34 84c-7,0 -15,0 -29,0 -20,0 -49,-8 -49,-32 0,-26 27,-33 50,-33 12,0 20,1 28,2l0 63z"/>
 </g>
</svg>
